<?xml version="1.0" encoding="UTF-8" standalone="no"?>
<!-- Created with Inkscape (http://www.inkscape.org/) -->

<svg
   xmlns:dc="http://purl.org/dc/elements/1.1/"
   xmlns:cc="http://creativecommons.org/ns#"
   xmlns:rdf="http://www.w3.org/1999/02/22-rdf-syntax-ns#"
   xmlns:svg="http://www.w3.org/2000/svg"
   xmlns="http://www.w3.org/2000/svg"
   xmlns:sodipodi="http://sodipodi.sourceforge.net/DTD/sodipodi-0.dtd"
   xmlns:inkscape="http://www.inkscape.org/namespaces/inkscape"
   version="1.1"
   id="svg815"
   xml:space="preserve"
   width="880"
   height="880"
   viewBox="0 0 880 880"
   sodipodi:docname="dotted-retro-patterns-2-freesvg.org.svg"
   inkscape:version="0.92.4 (5da689c313, 2019-01-14)"><metadata
     id="metadata821"><rdf:RDF><cc:Work
         rdf:about=""><dc:format>image/svg+xml</dc:format><dc:type
           rdf:resource="http://purl.org/dc/dcmitype/StillImage" /><dc:title></dc:title></cc:Work></rdf:RDF></metadata><defs
     id="defs819"><clipPath
       clipPathUnits="userSpaceOnUse"
       id="clipPath831"><path
         d="M 0,660 H 660 V 0 H 0 Z"
         id="path829"
         inkscape:connector-curvature="0" /></clipPath></defs><sodipodi:namedview
     pagecolor="#ffffff"
     bordercolor="#666666"
     borderopacity="1"
     objecttolerance="10"
     gridtolerance="10"
     guidetolerance="10"
     inkscape:pageopacity="0"
     inkscape:pageshadow="2"
     inkscape:window-width="1920"
     inkscape:window-height="1018"
     id="namedview817"
     showgrid="false"
     inkscape:zoom="0.96477273"
     inkscape:cx="440"
     inkscape:cy="440"
     inkscape:window-x="-8"
     inkscape:window-y="-8"
     inkscape:window-maximized="1"
     inkscape:current-layer="g823" /><g
     id="g823"
     inkscape:groupmode="layer"
     inkscape:label="dotted-retro-patterns-2-freesvg.org"
     transform="matrix(1.3333333,0,0,-1.3333333,0,880)"><g
       id="g825"><g
         id="g827"
         clip-path="url(#clipPath831)"><path
           d="m 31.141,-25.146 h 3.677 c 1.135,0 2.026,0.106 2.672,0.318 0.646,0.212 1.161,0.51 1.545,0.893 0.54,0.541 0.961,1.269 1.262,2.182 0.302,0.914 0.453,2.022 0.453,3.322 0,1.804 -0.295,3.19 -0.887,4.159 -0.591,0.967 -1.31,1.617 -2.155,1.946 -0.612,0.235 -1.594,0.352 -2.949,0.352 h -3.618 z m -2.282,-2.031 v 17.235 h 5.932 c 1.338,0 2.36,-0.082 3.065,-0.247 0.986,-0.228 1.828,-0.639 2.525,-1.235 0.908,-0.767 1.587,-1.749 2.037,-2.944 0.451,-1.195 0.676,-2.562 0.676,-4.098 0,-1.308 -0.153,-2.469 -0.458,-3.479 -0.305,-1.011 -0.697,-1.848 -1.175,-2.51 -0.477,-0.663 -1,-1.184 -1.568,-1.564 -0.567,-0.38 -1.252,-0.668 -2.055,-0.864 -0.802,-0.196 -1.724,-0.294 -2.766,-0.294 z"
           style="fill:#231f20;fill-opacity:1;fill-rule:nonzero;stroke:none"
           id="path833"
           inkscape:connector-curvature="0" /><path
           d="m 47.546,-19.739 h 6.969 c -0.094,1.052 -0.36,1.842 -0.799,2.368 -0.674,0.817 -1.548,1.225 -2.621,1.225 -0.971,0 -1.788,-0.326 -2.45,-0.978 -0.662,-0.651 -1.028,-1.523 -1.099,-2.615 m 6.946,-3.407 2.187,-0.281 c -0.345,-1.277 -0.983,-2.268 -1.915,-2.973 -0.931,-0.705 -2.122,-1.058 -3.571,-1.058 -1.824,0 -3.272,0.562 -4.34,1.687 -1.069,1.124 -1.603,2.701 -1.603,4.731 0,2.1 0.54,3.729 1.621,4.889 1.08,1.16 2.482,1.74 4.205,1.74 1.668,0 3.03,-0.568 4.088,-1.704 1.057,-1.136 1.586,-2.735 1.586,-4.794 0,-0.126 -0.004,-0.315 -0.012,-0.565 h -9.317 c 0.079,-1.373 0.467,-2.425 1.165,-3.155 0.698,-0.729 1.569,-1.095 2.612,-1.095 0.776,0 1.439,0.205 1.988,0.616 0.549,0.41 0.984,1.064 1.306,1.962"
           style="fill:#231f20;fill-opacity:1;fill-rule:nonzero;stroke:none"
           id="path835"
           inkscape:connector-curvature="0" /><path
           d="m 58.489,-23.442 2.094,0.328 c 0.118,-0.842 0.445,-1.489 0.983,-1.937 0.538,-0.448 1.289,-0.673 2.254,-0.673 0.973,0 1.695,0.199 2.166,0.595 0.471,0.397 0.706,0.861 0.706,1.396 0,0.479 -0.207,0.855 -0.62,1.13 -0.289,0.189 -1.01,0.428 -2.163,0.719 -1.554,0.392 -2.631,0.731 -3.231,1.016 -0.6,0.286 -1.055,0.681 -1.365,1.187 -0.31,0.505 -0.464,1.063 -0.464,1.674 0,0.557 0.127,1.071 0.382,1.545 0.254,0.475 0.602,0.868 1.04,1.182 0.329,0.242 0.778,0.448 1.347,0.616 0.568,0.169 1.177,0.253 1.828,0.253 0.979,0 1.84,-0.141 2.58,-0.423 0.741,-0.282 1.288,-0.664 1.641,-1.145 0.352,-0.482 0.595,-1.125 0.729,-1.932 l -2.063,-0.281 c -0.094,0.642 -0.367,1.144 -0.818,1.505 -0.451,0.361 -1.089,0.541 -1.912,0.541 -0.974,0 -1.668,-0.161 -2.084,-0.483 -0.416,-0.321 -0.623,-0.698 -0.623,-1.13 0,-0.275 0.086,-0.523 0.259,-0.742 0.172,-0.228 0.443,-0.417 0.811,-0.566 0.212,-0.079 0.836,-0.259 1.872,-0.541 1.498,-0.401 2.543,-0.728 3.133,-0.982 0.59,-0.255 1.053,-0.625 1.389,-1.11 0.336,-0.487 0.504,-1.089 0.504,-1.81 0,-0.705 -0.206,-1.369 -0.617,-1.992 -0.412,-0.622 -1.006,-1.104 -1.783,-1.445 -0.776,-0.341 -1.654,-0.511 -2.634,-0.511 -1.623,0 -2.861,0.338 -3.711,1.013 -0.852,0.674 -1.395,1.675 -1.63,3.003"
           style="fill:#231f20;fill-opacity:1;fill-rule:nonzero;stroke:none"
           id="path837"
           inkscape:connector-curvature="0" /><path
           d="m 71.378,-14.692 h 2.109 v -12.484 h -2.109 z m 0,4.75 h 2.109 v -2.438 h -2.109 z"
           style="fill:#231f20;fill-opacity:1;fill-rule:nonzero;stroke:none"
           id="path839"
           inkscape:connector-curvature="0" /><path
           d="m 78.078,-20.712 c 0,-1.639 0.325,-2.834 0.974,-3.586 0.65,-0.753 1.464,-1.129 2.442,-1.129 0.97,0 1.784,0.374 2.442,1.123 0.657,0.748 0.985,1.922 0.985,3.522 0,1.528 -0.338,2.68 -1.015,3.457 -0.677,0.775 -1.492,1.164 -2.448,1.164 -0.938,0 -1.737,-0.383 -2.394,-1.147 -0.657,-0.764 -0.986,-1.899 -0.986,-3.404 m -1.75,-7.496 2.062,-0.313 c 0.086,-0.632 0.325,-1.093 0.716,-1.382 0.524,-0.391 1.24,-0.586 2.147,-0.586 0.978,0 1.733,0.196 2.265,0.588 0.531,0.392 0.892,0.941 1.079,1.647 0.11,0.432 0.16,1.337 0.153,2.718 -0.924,-1.094 -2.075,-1.641 -3.453,-1.641 -1.715,0 -3.043,0.619 -3.982,1.858 -0.94,1.238 -1.409,2.722 -1.409,4.455 0,1.191 0.216,2.29 0.646,3.297 0.431,1.006 1.056,1.785 1.874,2.333 0.819,0.548 1.78,0.823 2.885,0.823 1.472,0 2.687,-0.594 3.642,-1.781 v 1.5 h 1.953 v -10.789 c 0,-1.944 -0.198,-3.321 -0.593,-4.131 -0.396,-0.811 -1.023,-1.451 -1.881,-1.922 -0.858,-0.47 -1.914,-0.705 -3.168,-0.705 -1.488,0 -2.691,0.335 -3.608,1.005 -0.917,0.67 -1.36,1.678 -1.328,3.026"
           style="fill:#231f20;fill-opacity:1;fill-rule:nonzero;stroke:none"
           id="path841"
           inkscape:connector-curvature="0" /><path
           d="m 90.104,-27.177 v 12.485 h 1.89 v -1.775 c 0.916,1.37 2.24,2.056 3.97,2.056 0.752,0 1.444,-0.135 2.074,-0.405 0.63,-0.271 1.102,-0.625 1.415,-1.065 0.313,-0.438 0.533,-0.96 0.658,-1.563 0.078,-0.392 0.118,-1.077 0.118,-2.057 v -7.676 h -2.11 v 7.598 c 0,0.862 -0.082,1.507 -0.246,1.934 -0.165,0.427 -0.456,0.769 -0.875,1.023 -0.419,0.256 -0.911,0.383 -1.474,0.383 -0.9,0 -1.677,-0.286 -2.331,-0.859 -0.653,-0.572 -0.98,-1.658 -0.98,-3.257 v -6.822 z"
           style="fill:#231f20;fill-opacity:1;fill-rule:nonzero;stroke:none"
           id="path843"
           inkscape:connector-curvature="0" /><path
           d="m 105.062,-19.739 h 6.969 c -0.094,1.052 -0.361,1.842 -0.799,2.368 -0.674,0.817 -1.548,1.225 -2.621,1.225 -0.972,0 -1.788,-0.326 -2.45,-0.978 -0.662,-0.651 -1.029,-1.523 -1.099,-2.615 m 6.945,-3.407 2.188,-0.281 c -0.345,-1.277 -0.984,-2.268 -1.915,-2.973 -0.932,-0.705 -2.122,-1.058 -3.571,-1.058 -1.825,0 -3.272,0.562 -4.34,1.687 -1.07,1.124 -1.604,2.701 -1.604,4.731 0,2.1 0.54,3.729 1.621,4.889 1.081,1.16 2.483,1.74 4.205,1.74 1.668,0 3.031,-0.568 4.088,-1.704 1.057,-1.136 1.586,-2.735 1.586,-4.794 0,-0.126 -0.004,-0.315 -0.012,-0.565 h -9.316 c 0.078,-1.373 0.467,-2.425 1.165,-3.155 0.697,-0.729 1.568,-1.095 2.611,-1.095 0.777,0 1.439,0.205 1.989,0.616 0.548,0.41 0.984,1.064 1.305,1.962"
           style="fill:#231f20;fill-opacity:1;fill-rule:nonzero;stroke:none"
           id="path845"
           inkscape:connector-curvature="0" /><path
           d="m 118.255,-20.948 c 0,-1.6 0.337,-2.795 1.01,-3.588 0.674,-0.791 1.469,-1.188 2.385,-1.188 0.924,0 1.709,0.378 2.355,1.135 0.646,0.757 0.969,1.911 0.969,3.464 0,1.71 -0.329,2.964 -0.987,3.765 -0.657,0.798 -1.468,1.199 -2.431,1.199 -0.94,0 -1.724,-0.385 -2.355,-1.152 -0.63,-0.77 -0.946,-1.981 -0.946,-3.635 m 6.688,-6.229 v 1.571 c -0.791,-1.235 -1.955,-1.852 -3.49,-1.852 -0.995,0 -1.91,0.274 -2.744,0.822 -0.834,0.549 -1.48,1.315 -1.938,2.299 -0.458,0.983 -0.688,2.113 -0.688,3.391 0,1.246 0.208,2.376 0.624,3.39 0.415,1.015 1.037,1.793 1.868,2.334 0.83,0.54 1.758,0.811 2.784,0.811 0.752,0 1.422,-0.158 2.01,-0.476 0.587,-0.317 1.065,-0.73 1.433,-1.239 v 6.184 h 2.11 v -17.235 z"
           style="fill:#231f20;fill-opacity:1;fill-rule:nonzero;stroke:none"
           id="path847"
           inkscape:connector-curvature="0" /><path
           d="m 144.882,-20.911 c -0.767,-0.314 -1.918,-0.58 -3.451,-0.799 -0.869,-0.126 -1.484,-0.268 -1.844,-0.424 -0.36,-0.156 -0.637,-0.386 -0.833,-0.687 -0.196,-0.302 -0.294,-0.637 -0.294,-1.006 0,-0.565 0.213,-1.034 0.639,-1.41 0.426,-0.377 1.049,-0.565 1.869,-0.565 0.813,0 1.535,0.178 2.168,0.535 0.633,0.357 1.098,0.844 1.395,1.463 0.226,0.479 0.34,1.184 0.34,2.117 z m 0.172,-4.719 c -0.786,-0.668 -1.541,-1.141 -2.263,-1.415 -0.723,-0.275 -1.499,-0.413 -2.327,-0.413 -1.367,0 -2.418,0.335 -3.152,1.005 -0.734,0.67 -1.102,1.526 -1.102,2.567 0,0.612 0.139,1.17 0.416,1.675 0.278,0.506 0.641,0.911 1.09,1.217 0.45,0.306 0.955,0.536 1.518,0.693 0.414,0.11 1.039,0.216 1.875,0.318 1.703,0.203 2.957,0.446 3.762,0.728 0.007,0.29 0.011,0.475 0.011,0.553 0,0.863 -0.199,1.471 -0.598,1.823 -0.539,0.479 -1.341,0.718 -2.404,0.718 -0.992,0 -1.725,-0.175 -2.198,-0.524 -0.474,-0.348 -0.823,-0.965 -1.05,-1.851 l -2.062,0.281 c 0.188,0.886 0.497,1.601 0.928,2.146 0.43,0.544 1.052,0.963 1.867,1.256 0.814,0.295 1.758,0.442 2.831,0.442 1.064,0 1.929,-0.125 2.596,-0.376 0.665,-0.251 1.154,-0.567 1.467,-0.946 0.314,-0.38 0.533,-0.861 0.658,-1.44 0.071,-0.361 0.106,-1.012 0.106,-1.951 v -2.822 c 0,-1.967 0.045,-3.211 0.136,-3.733 0.09,-0.52 0.268,-1.019 0.536,-1.498 h -2.203 c -0.227,0.442 -0.373,0.957 -0.438,1.547"
           style="fill:#231f20;fill-opacity:1;fill-rule:nonzero;stroke:none"
           id="path849"
           inkscape:connector-curvature="0" /><path
           d="m 150.31,-27.177 v 12.485 h 1.89 v -1.775 c 0.916,1.37 2.24,2.056 3.97,2.056 0.752,0 1.444,-0.135 2.074,-0.405 0.631,-0.271 1.102,-0.625 1.415,-1.065 0.313,-0.438 0.533,-0.96 0.658,-1.563 0.078,-0.392 0.118,-1.077 0.118,-2.057 v -7.676 h -2.11 v 7.598 c 0,0.862 -0.082,1.507 -0.246,1.934 -0.165,0.427 -0.456,0.769 -0.875,1.023 -0.419,0.256 -0.911,0.383 -1.474,0.383 -0.9,0 -1.677,-0.286 -2.331,-0.859 -0.653,-0.572 -0.98,-1.658 -0.98,-3.257 v -6.822 z"
           style="fill:#231f20;fill-opacity:1;fill-rule:nonzero;stroke:none"
           id="path851"
           inkscape:connector-curvature="0" /><path
           d="m 165.081,-20.948 c 0,-1.6 0.336,-2.795 1.009,-3.588 0.674,-0.791 1.469,-1.188 2.385,-1.188 0.924,0 1.709,0.378 2.356,1.135 0.645,0.757 0.968,1.911 0.968,3.464 0,1.71 -0.329,2.964 -0.986,3.765 -0.658,0.798 -1.469,1.199 -2.432,1.199 -0.94,0 -1.724,-0.385 -2.355,-1.152 -0.63,-0.77 -0.945,-1.981 -0.945,-3.635 m 6.687,-6.229 v 1.571 c -0.791,-1.235 -1.955,-1.852 -3.49,-1.852 -0.994,0 -1.909,0.274 -2.743,0.822 -0.834,0.549 -1.481,1.315 -1.939,2.299 -0.458,0.983 -0.687,2.113 -0.687,3.391 0,1.246 0.207,2.376 0.623,3.39 0.415,1.015 1.037,1.793 1.868,2.334 0.83,0.54 1.758,0.811 2.785,0.811 0.752,0 1.421,-0.158 2.009,-0.476 0.587,-0.317 1.065,-0.73 1.433,-1.239 v 6.184 h 2.11 v -17.235 z"
           style="fill:#231f20;fill-opacity:1;fill-rule:nonzero;stroke:none"
           id="path853"
           inkscape:connector-curvature="0" /><path
           d="m 183.724,-27.177 v 12.485 h 1.89 v -1.895 c 0.487,0.886 0.937,1.471 1.349,1.752 0.413,0.283 0.867,0.424 1.362,0.424 0.715,0 1.441,-0.228 2.18,-0.682 l -0.74,-1.957 c -0.516,0.301 -1.033,0.451 -1.549,0.451 -0.461,0 -0.876,-0.138 -1.243,-0.417 -0.368,-0.278 -0.63,-0.664 -0.787,-1.158 -0.235,-0.752 -0.353,-1.575 -0.353,-2.468 v -6.535 z"
           style="fill:#231f20;fill-opacity:1;fill-rule:nonzero;stroke:none"
           id="path855"
           inkscape:connector-curvature="0" /><path
           d="m 193.345,-19.739 h 6.968 c -0.094,1.052 -0.36,1.842 -0.799,2.368 -0.674,0.817 -1.547,1.225 -2.62,1.225 -0.972,0 -1.789,-0.326 -2.451,-0.978 -0.662,-0.651 -1.028,-1.523 -1.098,-2.615 m 6.945,-3.407 2.187,-0.281 c -0.345,-1.277 -0.982,-2.268 -1.914,-2.973 -0.933,-0.705 -2.123,-1.058 -3.571,-1.058 -1.825,0 -3.272,0.562 -4.341,1.687 -1.068,1.124 -1.603,2.701 -1.603,4.731 0,2.1 0.54,3.729 1.621,4.889 1.081,1.16 2.482,1.74 4.206,1.74 1.667,0 3.03,-0.568 4.087,-1.704 1.057,-1.136 1.586,-2.735 1.586,-4.794 0,-0.126 -0.004,-0.315 -0.012,-0.565 h -9.316 c 0.078,-1.373 0.466,-2.425 1.164,-3.155 0.699,-0.729 1.569,-1.095 2.612,-1.095 0.776,0 1.439,0.205 1.988,0.616 0.549,0.41 0.984,1.064 1.306,1.962"
           style="fill:#231f20;fill-opacity:1;fill-rule:nonzero;stroke:none"
           id="path857"
           inkscape:connector-curvature="0" /><path
           d="m 205.1,-9.942 h 2.109 V -27.176 H 205.1 Z"
           style="fill:#231f20;fill-opacity:1;fill-rule:nonzero;stroke:none"
           id="path859"
           inkscape:connector-curvature="0" /><path
           d="m 212.07,-19.739 h 6.969 c -0.094,1.052 -0.361,1.842 -0.799,2.368 -0.674,0.817 -1.547,1.225 -2.62,1.225 -0.972,0 -1.789,-0.326 -2.451,-0.978 -0.662,-0.651 -1.028,-1.523 -1.099,-2.615 m 6.946,-3.407 2.187,-0.281 c -0.345,-1.277 -0.983,-2.268 -1.915,-2.973 -0.932,-0.705 -2.122,-1.058 -3.571,-1.058 -1.824,0 -3.271,0.562 -4.341,1.687 -1.068,1.124 -1.603,2.701 -1.603,4.731 0,2.1 0.541,3.729 1.622,4.889 1.08,1.16 2.482,1.74 4.205,1.74 1.668,0 3.03,-0.568 4.088,-1.704 1.057,-1.136 1.585,-2.735 1.585,-4.794 0,-0.126 -0.003,-0.315 -0.011,-0.565 h -9.317 c 0.079,-1.373 0.467,-2.425 1.165,-3.155 0.698,-0.729 1.568,-1.095 2.612,-1.095 0.776,0 1.439,0.205 1.987,0.616 0.549,0.41 0.985,1.064 1.307,1.962"
           style="fill:#231f20;fill-opacity:1;fill-rule:nonzero;stroke:none"
           id="path861"
           inkscape:connector-curvature="0" /><path
           d="m 231.826,-20.911 c -0.767,-0.314 -1.918,-0.58 -3.452,-0.799 -0.869,-0.126 -1.483,-0.268 -1.843,-0.424 -0.361,-0.156 -0.638,-0.386 -0.834,-0.687 -0.196,-0.302 -0.293,-0.637 -0.293,-1.006 0,-0.565 0.213,-1.034 0.638,-1.41 0.426,-0.377 1.049,-0.565 1.87,-0.565 0.812,0 1.535,0.178 2.168,0.535 0.632,0.357 1.097,0.844 1.394,1.463 0.227,0.479 0.34,1.184 0.34,2.117 z m 0.172,-4.719 c -0.787,-0.668 -1.541,-1.141 -2.264,-1.415 -0.723,-0.275 -1.498,-0.413 -2.326,-0.413 -1.367,0 -2.418,0.335 -3.153,1.005 -0.734,0.67 -1.101,1.526 -1.101,2.567 0,0.612 0.138,1.17 0.416,1.675 0.277,0.506 0.64,0.911 1.09,1.217 0.449,0.306 0.955,0.536 1.517,0.693 0.414,0.11 1.039,0.216 1.875,0.318 1.703,0.203 2.957,0.446 3.762,0.728 0.008,0.29 0.012,0.475 0.012,0.553 0,0.863 -0.2,1.471 -0.598,1.823 -0.54,0.479 -1.341,0.718 -2.404,0.718 -0.993,0 -1.726,-0.175 -2.199,-0.524 -0.473,-0.348 -0.823,-0.965 -1.049,-1.851 l -2.063,0.281 c 0.188,0.886 0.497,1.601 0.928,2.146 0.431,0.544 1.053,0.963 1.867,1.256 0.815,0.295 1.758,0.442 2.831,0.442 1.065,0 1.93,-0.125 2.596,-0.376 0.665,-0.251 1.155,-0.567 1.468,-0.946 0.313,-0.38 0.532,-0.861 0.658,-1.44 0.07,-0.361 0.105,-1.012 0.105,-1.951 v -2.822 c 0,-1.967 0.045,-3.211 0.136,-3.733 0.09,-0.52 0.269,-1.019 0.536,-1.498 h -2.203 c -0.227,0.442 -0.373,0.957 -0.437,1.547"
           style="fill:#231f20;fill-opacity:1;fill-rule:nonzero;stroke:none"
           id="path863"
           inkscape:connector-curvature="0" /><path
           d="m 236.394,-23.442 2.093,0.328 c 0.118,-0.842 0.446,-1.489 0.983,-1.937 0.538,-0.448 1.289,-0.673 2.254,-0.673 0.974,0 1.695,0.199 2.166,0.595 0.471,0.397 0.707,0.861 0.707,1.396 0,0.479 -0.207,0.855 -0.621,1.13 -0.289,0.189 -1.01,0.428 -2.163,0.719 -1.554,0.392 -2.631,0.731 -3.23,1.016 -0.601,0.286 -1.056,0.681 -1.366,1.187 -0.309,0.505 -0.464,1.063 -0.464,1.674 0,0.557 0.127,1.071 0.382,1.545 0.255,0.475 0.602,0.868 1.04,1.182 0.329,0.242 0.779,0.448 1.347,0.616 0.568,0.169 1.178,0.253 1.828,0.253 0.98,0 1.84,-0.141 2.581,-0.423 0.74,-0.282 1.287,-0.664 1.64,-1.145 0.352,-0.482 0.596,-1.125 0.729,-1.932 l -2.063,-0.281 c -0.094,0.642 -0.366,1.144 -0.818,1.505 -0.451,0.361 -1.088,0.541 -1.912,0.541 -0.973,0 -1.668,-0.161 -2.084,-0.483 -0.416,-0.321 -0.623,-0.698 -0.623,-1.13 0,-0.275 0.086,-0.523 0.259,-0.742 0.172,-0.228 0.443,-0.417 0.812,-0.566 0.212,-0.079 0.836,-0.259 1.871,-0.541 1.499,-0.401 2.543,-0.728 3.133,-0.982 0.59,-0.255 1.053,-0.625 1.389,-1.11 0.336,-0.487 0.505,-1.089 0.505,-1.81 0,-0.705 -0.206,-1.369 -0.618,-1.992 -0.412,-0.622 -1.006,-1.104 -1.782,-1.445 -0.777,-0.341 -1.655,-0.511 -2.635,-0.511 -1.623,0 -2.86,0.338 -3.711,1.013 -0.852,0.674 -1.395,1.675 -1.629,3.003"
           style="fill:#231f20;fill-opacity:1;fill-rule:nonzero;stroke:none"
           id="path865"
           inkscape:connector-curvature="0" /><path
           d="m 250.861,-19.739 h 6.969 c -0.094,1.052 -0.361,1.842 -0.799,2.368 -0.674,0.817 -1.548,1.225 -2.621,1.225 -0.972,0 -1.788,-0.326 -2.451,-0.978 -0.662,-0.651 -1.028,-1.523 -1.098,-2.615 m 6.945,-3.407 2.188,-0.281 c -0.345,-1.277 -0.984,-2.268 -1.915,-2.973 -0.932,-0.705 -2.122,-1.058 -3.572,-1.058 -1.824,0 -3.271,0.562 -4.34,1.687 -1.069,1.124 -1.603,2.701 -1.603,4.731 0,2.1 0.54,3.729 1.621,4.889 1.08,1.16 2.482,1.74 4.205,1.74 1.668,0 3.031,-0.568 4.088,-1.704 1.057,-1.136 1.586,-2.735 1.586,-4.794 0,-0.126 -0.004,-0.315 -0.012,-0.565 h -9.316 c 0.078,-1.373 0.467,-2.425 1.164,-3.155 0.698,-0.729 1.569,-1.095 2.612,-1.095 0.777,0 1.439,0.205 1.988,0.616 0.549,0.41 0.984,1.064 1.306,1.962"
           style="fill:#231f20;fill-opacity:1;fill-rule:nonzero;stroke:none"
           id="path867"
           inkscape:connector-curvature="0" /><path
           d="m 264.053,-20.948 c 0,-1.6 0.337,-2.795 1.01,-3.588 0.674,-0.791 1.469,-1.188 2.385,-1.188 0.924,0 1.709,0.378 2.355,1.135 0.646,0.757 0.969,1.911 0.969,3.464 0,1.71 -0.329,2.964 -0.987,3.765 -0.658,0.798 -1.468,1.199 -2.431,1.199 -0.94,0 -1.725,-0.385 -2.355,-1.152 -0.63,-0.77 -0.946,-1.981 -0.946,-3.635 m 6.688,-6.229 v 1.571 c -0.791,-1.235 -1.954,-1.852 -3.49,-1.852 -0.995,0 -1.91,0.274 -2.744,0.822 -0.834,0.549 -1.48,1.315 -1.938,2.299 -0.458,0.983 -0.688,2.113 -0.688,3.391 0,1.246 0.208,2.376 0.623,3.39 0.415,1.015 1.038,1.793 1.869,2.334 0.83,0.54 1.757,0.811 2.785,0.811 0.752,0 1.422,-0.158 2.009,-0.476 0.586,-0.317 1.065,-0.73 1.433,-1.239 v 6.184 h 2.109 v -17.235 z"
           style="fill:#231f20;fill-opacity:1;fill-rule:nonzero;stroke:none"
           id="path869"
           inkscape:connector-curvature="0" /><path
           d="m 282.728,-14.692 h 2.109 v -12.484 h -2.109 z m 0,4.75 h 2.109 v -2.438 h -2.109 z"
           style="fill:#231f20;fill-opacity:1;fill-rule:nonzero;stroke:none"
           id="path871"
           inkscape:connector-curvature="0" /><path
           d="m 288.073,-27.177 v 12.485 h 1.89 v -1.775 c 0.916,1.37 2.24,2.056 3.971,2.056 0.751,0 1.442,-0.135 2.073,-0.405 0.63,-0.271 1.102,-0.625 1.415,-1.065 0.314,-0.438 0.533,-0.96 0.659,-1.563 0.078,-0.392 0.117,-1.077 0.117,-2.057 v -7.676 h -2.11 v 7.598 c 0,0.862 -0.082,1.507 -0.247,1.934 -0.164,0.427 -0.455,0.769 -0.874,1.023 -0.419,0.256 -0.91,0.383 -1.473,0.383 -0.901,0 -1.678,-0.286 -2.331,-0.859 -0.654,-0.572 -0.981,-1.658 -0.981,-3.257 v -6.822 z"
           style="fill:#231f20;fill-opacity:1;fill-rule:nonzero;stroke:none"
           id="path873"
           inkscape:connector-curvature="0" /><path
           d="m 310.043,-21.007 c 0,-1.607 0.326,-2.796 0.975,-3.564 0.649,-0.769 1.436,-1.153 2.359,-1.153 0.939,0 1.744,0.399 2.413,1.194 0.668,0.797 1.003,2.029 1.003,3.699 0,1.592 -0.327,2.783 -0.98,3.576 -0.653,0.791 -1.435,1.188 -2.342,1.188 -0.899,0 -1.696,-0.422 -2.388,-1.265 -0.693,-0.843 -1.04,-2.067 -1.04,-3.675 m -1.906,-10.951 v 17.266 h 1.922 v -1.622 c 0.454,0.633 0.968,1.11 1.539,1.427 0.571,0.318 1.265,0.476 2.08,0.476 1.066,0 2.005,-0.275 2.82,-0.822 0.814,-0.549 1.429,-1.324 1.844,-2.323 0.415,-0.999 0.623,-2.093 0.623,-3.285 0,-1.277 -0.229,-2.427 -0.687,-3.449 -0.458,-1.023 -1.124,-1.807 -1.997,-2.352 -0.874,-0.544 -1.793,-0.816 -2.756,-0.816 -0.705,0 -1.338,0.148 -1.898,0.445 -0.56,0.297 -1.02,0.672 -1.38,1.125 v -6.07 z"
           style="fill:#231f20;fill-opacity:1;fill-rule:nonzero;stroke:none"
           id="path875"
           inkscape:connector-curvature="0" /><path
           d="m 329.674,-27.177 v 1.841 c -0.968,-1.415 -2.285,-2.122 -3.949,-2.122 -0.734,0 -1.42,0.141 -2.057,0.423 -0.636,0.282 -1.109,0.637 -1.418,1.064 -0.308,0.427 -0.525,0.95 -0.65,1.57 -0.086,0.415 -0.129,1.073 -0.129,1.974 v 7.735 h 2.11 v -6.92 c 0,-1.105 0.043,-1.848 0.128,-2.233 0.133,-0.555 0.415,-0.992 0.845,-1.309 0.43,-0.318 0.961,-0.476 1.595,-0.476 0.633,0 1.227,0.162 1.782,0.487 0.555,0.326 0.947,0.768 1.179,1.328 0.23,0.56 0.346,1.373 0.346,2.438 v 6.685 h 2.108 v -12.485 z"
           style="fill:#231f20;fill-opacity:1;fill-rule:nonzero;stroke:none"
           id="path877"
           inkscape:connector-curvature="0" /><path
           d="m 336.804,-20.841 c 0,-1.498 0.204,-2.58 0.612,-3.247 0.667,-1.091 1.569,-1.636 2.708,-1.636 0.926,0 1.727,0.403 2.401,1.206 0.675,0.804 1.013,2.002 1.013,3.595 0,1.632 -0.324,2.836 -0.972,3.612 -0.647,0.777 -1.43,1.165 -2.348,1.165 -0.926,0 -1.727,-0.402 -2.402,-1.206 -0.674,-0.803 -1.012,-1.966 -1.012,-3.489 m 0.031,-6.336 h -1.953 v 17.235 h 2.109 v -6.145 c 0.895,1.117 2.035,1.676 3.424,1.676 0.769,0 1.496,-0.154 2.183,-0.465 0.686,-0.309 1.251,-0.744 1.694,-1.305 0.443,-0.559 0.791,-1.235 1.041,-2.027 0.252,-0.791 0.377,-1.638 0.377,-2.539 0,-2.139 -0.529,-3.792 -1.589,-4.96 -1.059,-1.167 -2.331,-1.751 -3.813,-1.751 -1.476,0 -2.633,0.613 -3.473,1.84 z"
           style="fill:#231f20;fill-opacity:1;fill-rule:nonzero;stroke:none"
           id="path879"
           inkscape:connector-curvature="0" /><path
           d="m 348.231,-9.942 h 2.109 v -17.234 h -2.109 z"
           style="fill:#231f20;fill-opacity:1;fill-rule:nonzero;stroke:none"
           id="path881"
           inkscape:connector-curvature="0" /><path
           d="m 353.623,-14.692 h 2.109 v -12.484 h -2.109 z m 0,4.75 h 2.109 v -2.438 h -2.109 z"
           style="fill:#231f20;fill-opacity:1;fill-rule:nonzero;stroke:none"
           id="path883"
           inkscape:connector-curvature="0" /><path
           d="m 367.109,-22.599 2.079,-0.281 c -0.228,-1.432 -0.81,-2.553 -1.747,-3.363 -0.936,-0.811 -2.087,-1.215 -3.45,-1.215 -1.709,0 -3.082,0.559 -4.121,1.675 -1.039,1.116 -1.557,2.717 -1.557,4.802 0,1.347 0.223,2.527 0.669,3.537 0.447,1.011 1.126,1.769 2.039,2.275 0.914,0.505 1.907,0.758 2.98,0.758 1.355,0 2.465,-0.344 3.326,-1.029 0.861,-0.687 1.414,-1.662 1.657,-2.924 l -2.062,-0.313 c -0.196,0.84 -0.542,1.472 -1.04,1.896 -0.497,0.424 -1.098,0.635 -1.803,0.635 -1.065,0 -1.931,-0.382 -2.596,-1.147 -0.666,-0.765 -0.999,-1.975 -0.999,-3.63 0,-1.679 0.322,-2.898 0.965,-3.659 0.644,-0.761 1.483,-1.142 2.519,-1.142 0.831,0 1.525,0.256 2.082,0.767 0.557,0.511 0.91,1.297 1.059,2.358"
           style="fill:#231f20;fill-opacity:1;fill-rule:nonzero;stroke:none"
           id="path885"
           inkscape:connector-curvature="0" /><path
           d="m 379.073,-20.948 c 0,-1.6 0.337,-2.795 1.01,-3.588 0.674,-0.791 1.469,-1.188 2.385,-1.188 0.924,0 1.709,0.378 2.355,1.135 0.646,0.757 0.969,1.911 0.969,3.464 0,1.71 -0.329,2.964 -0.986,3.765 -0.659,0.798 -1.469,1.199 -2.432,1.199 -0.939,0 -1.725,-0.385 -2.355,-1.152 -0.63,-0.77 -0.946,-1.981 -0.946,-3.635 m 6.688,-6.229 v 1.571 c -0.791,-1.235 -1.955,-1.852 -3.49,-1.852 -0.995,0 -1.91,0.274 -2.744,0.822 -0.834,0.549 -1.48,1.315 -1.938,2.299 -0.459,0.983 -0.688,2.113 -0.688,3.391 0,1.246 0.207,2.376 0.623,3.39 0.415,1.015 1.038,1.793 1.869,2.334 0.83,0.54 1.758,0.811 2.784,0.811 0.752,0 1.422,-0.158 2.01,-0.476 0.587,-0.317 1.065,-0.73 1.433,-1.239 v 6.184 h 2.109 v -17.235 z"
           style="fill:#231f20;fill-opacity:1;fill-rule:nonzero;stroke:none"
           id="path887"
           inkscape:connector-curvature="0" /><path
           d="m 392.438,-20.937 c 0,-1.599 0.348,-2.796 1.045,-3.593 0.698,-0.795 1.575,-1.194 2.632,-1.194 1.05,0 1.923,0.401 2.62,1.2 0.698,0.8 1.046,2.019 1.046,3.658 0,1.545 -0.35,2.715 -1.052,3.512 -0.701,0.794 -1.572,1.193 -2.614,1.193 -1.057,0 -1.934,-0.397 -2.632,-1.188 -0.697,-0.793 -1.045,-1.988 -1.045,-3.588 m -2.172,0.002 c 0,2.312 0.641,4.024 1.926,5.137 1.073,0.924 2.38,1.387 3.923,1.387 1.715,0 3.116,-0.563 4.205,-1.687 1.089,-1.125 1.633,-2.678 1.633,-4.661 0,-1.605 -0.241,-2.869 -0.723,-3.79 -0.481,-0.921 -1.182,-1.636 -2.102,-2.145 -0.92,-0.509 -1.924,-0.764 -3.013,-0.764 -1.746,0 -3.158,0.561 -4.234,1.681 -1.077,1.12 -1.615,2.735 -1.615,4.842"
           style="fill:#231f20;fill-opacity:1;fill-rule:nonzero;stroke:none"
           id="path889"
           inkscape:connector-curvature="0" /><path
           d="m 404.436,-27.177 v 12.485 h 1.89 v -1.747 c 0.392,0.609 0.911,1.1 1.561,1.471 0.649,0.371 1.387,0.557 2.217,0.557 0.922,0 1.679,-0.192 2.27,-0.574 0.59,-0.384 1.007,-0.919 1.249,-1.607 0.988,1.454 2.275,2.181 3.859,2.181 1.24,0 2.193,-0.343 2.86,-1.028 0.667,-0.687 1,-1.743 1,-3.168 v -8.57 h -2.11 v 7.868 c 0,0.847 -0.068,1.456 -0.206,1.83 -0.136,0.372 -0.385,0.671 -0.746,0.899 -0.361,0.227 -0.785,0.341 -1.27,0.341 -0.879,0 -1.609,-0.292 -2.189,-0.876 -0.58,-0.585 -0.87,-1.52 -0.87,-2.806 v -7.256 h -2.109 v 8.115 c 0,0.941 -0.172,1.647 -0.517,2.117 -0.345,0.47 -0.908,0.706 -1.691,0.706 -0.595,0 -1.145,-0.157 -1.651,-0.471 -0.504,-0.313 -0.871,-0.772 -1.097,-1.376 -0.227,-0.603 -0.341,-1.474 -0.341,-2.61 v -6.481 z"
           style="fill:#231f20;fill-opacity:1;fill-rule:nonzero;stroke:none"
           id="path891"
           inkscape:connector-curvature="0" /><path
           d="m 432.438,-20.911 c -0.767,-0.314 -1.918,-0.58 -3.453,-0.799 -0.868,-0.126 -1.482,-0.268 -1.842,-0.424 -0.361,-0.156 -0.638,-0.386 -0.833,-0.687 -0.197,-0.302 -0.294,-0.637 -0.294,-1.006 0,-0.565 0.213,-1.034 0.638,-1.41 0.426,-0.377 1.049,-0.565 1.869,-0.565 0.813,0 1.536,0.178 2.168,0.535 0.633,0.357 1.098,0.844 1.395,1.463 0.227,0.479 0.34,1.184 0.34,2.117 z m 0.171,-4.719 c -0.786,-0.668 -1.541,-1.141 -2.263,-1.415 -0.723,-0.275 -1.498,-0.413 -2.326,-0.413 -1.368,0 -2.418,0.335 -3.153,1.005 -0.734,0.67 -1.101,1.526 -1.101,2.567 0,0.612 0.138,1.17 0.416,1.675 0.277,0.506 0.64,0.911 1.089,1.217 0.45,0.306 0.956,0.536 1.518,0.693 0.414,0.11 1.039,0.216 1.875,0.318 1.703,0.203 2.957,0.446 3.762,0.728 0.008,0.29 0.012,0.475 0.012,0.553 0,0.863 -0.2,1.471 -0.599,1.823 -0.539,0.479 -1.34,0.718 -2.403,0.718 -0.994,0 -1.726,-0.175 -2.199,-0.524 -0.473,-0.348 -0.823,-0.965 -1.049,-1.851 l -2.063,0.281 c 0.188,0.886 0.497,1.601 0.928,2.146 0.43,0.544 1.052,0.963 1.867,1.256 0.814,0.295 1.759,0.442 2.831,0.442 1.064,0 1.93,-0.125 2.596,-0.376 0.665,-0.251 1.154,-0.567 1.467,-0.946 0.314,-0.38 0.533,-0.861 0.659,-1.44 0.07,-0.361 0.105,-1.012 0.105,-1.951 v -2.822 c 0,-1.967 0.045,-3.211 0.136,-3.733 0.09,-0.52 0.268,-1.019 0.536,-1.498 h -2.203 c -0.228,0.442 -0.373,0.957 -0.438,1.547"
           style="fill:#231f20;fill-opacity:1;fill-rule:nonzero;stroke:none"
           id="path893"
           inkscape:connector-curvature="0" /><path
           d="m 437.865,-14.692 h 2.109 v -12.484 h -2.109 z m 0,4.75 h 2.109 v -2.438 h -2.109 z"
           style="fill:#231f20;fill-opacity:1;fill-rule:nonzero;stroke:none"
           id="path895"
           inkscape:connector-curvature="0" /><path
           d="m 443.21,-27.177 v 12.485 h 1.891 v -1.775 c 0.916,1.37 2.239,2.056 3.97,2.056 0.752,0 1.443,-0.135 2.074,-0.405 0.629,-0.271 1.101,-0.625 1.415,-1.065 0.313,-0.438 0.532,-0.96 0.658,-1.563 0.078,-0.392 0.117,-1.077 0.117,-2.057 v -7.676 h -2.109 v 7.598 c 0,0.862 -0.082,1.507 -0.247,1.934 -0.165,0.427 -0.457,0.769 -0.875,1.023 -0.418,0.256 -0.91,0.383 -1.473,0.383 -0.901,0 -1.678,-0.286 -2.331,-0.859 -0.654,-0.572 -0.981,-1.658 -0.981,-3.257 v -6.822 z"
           style="fill:#231f20;fill-opacity:1;fill-rule:nonzero;stroke:none"
           id="path897"
           inkscape:connector-curvature="0" /><path
           d="m 465.181,-20.841 c 0,-1.498 0.204,-2.58 0.612,-3.247 0.667,-1.091 1.569,-1.636 2.708,-1.636 0.926,0 1.727,0.403 2.401,1.206 0.675,0.804 1.013,2.002 1.013,3.595 0,1.632 -0.324,2.836 -0.972,3.612 -0.647,0.777 -1.43,1.165 -2.348,1.165 -0.926,0 -1.727,-0.402 -2.402,-1.206 -0.674,-0.803 -1.012,-1.966 -1.012,-3.489 m 0.031,-6.336 h -1.953 v 17.235 h 2.109 v -6.145 c 0.895,1.117 2.035,1.676 3.424,1.676 0.769,0 1.496,-0.154 2.183,-0.465 0.686,-0.309 1.251,-0.744 1.694,-1.305 0.443,-0.559 0.791,-1.235 1.041,-2.027 0.252,-0.791 0.377,-1.638 0.377,-2.539 0,-2.139 -0.529,-3.792 -1.589,-4.96 -1.06,-1.167 -2.331,-1.751 -3.813,-1.751 -1.476,0 -2.633,0.613 -3.473,1.84 z"
           style="fill:#231f20;fill-opacity:1;fill-rule:nonzero;stroke:none"
           id="path899"
           inkscape:connector-curvature="0" /><path
           d="m 476.562,-31.979 -0.235,1.99 c 0.461,-0.125 0.864,-0.188 1.208,-0.188 0.47,0 0.845,0.078 1.126,0.235 0.281,0.157 0.513,0.377 0.693,0.658 0.132,0.212 0.347,0.736 0.645,1.574 0.039,0.118 0.102,0.29 0.188,0.518 l -4.75,12.5 h 2.28 l 2.602,-7.198 c 0.338,-0.912 0.64,-1.872 0.908,-2.879 0.244,0.941 0.535,1.873 0.873,2.797 l 2.665,7.28 h 2.114 l -4.733,-12.704 c -0.51,-1.369 -0.906,-2.31 -1.188,-2.827 -0.376,-0.695 -0.807,-1.205 -1.293,-1.53 -0.486,-0.324 -1.066,-0.486 -1.74,-0.486 -0.407,0 -0.862,0.086 -1.363,0.26"
           style="fill:#231f20;fill-opacity:1;fill-rule:nonzero;stroke:none"
           id="path901"
           inkscape:connector-curvature="0" /><path
           d="m 495.744,-27.177 v 17.235 h 11.625 v -2.032 h -9.344 v -5.343 h 8.094 v -2.032 h -8.094 v -7.828 z"
           style="fill:#231f20;fill-opacity:1;fill-rule:nonzero;stroke:none"
           id="path903"
           inkscape:connector-curvature="0" /><path
           d="m 510.034,-27.177 v 12.485 h 1.891 v -1.895 c 0.487,0.886 0.936,1.471 1.349,1.752 0.413,0.283 0.866,0.424 1.362,0.424 0.715,0 1.441,-0.228 2.179,-0.682 l -0.74,-1.957 c -0.515,0.301 -1.032,0.451 -1.549,0.451 -0.461,0 -0.875,-0.138 -1.243,-0.417 -0.367,-0.278 -0.63,-0.664 -0.786,-1.158 -0.236,-0.752 -0.353,-1.575 -0.353,-2.468 v -6.535 z"
           style="fill:#231f20;fill-opacity:1;fill-rule:nonzero;stroke:none"
           id="path905"
           inkscape:connector-curvature="0" /><path
           d="m 519.655,-19.739 h 6.969 c -0.094,1.052 -0.36,1.842 -0.799,2.368 -0.674,0.817 -1.548,1.225 -2.621,1.225 -0.972,0 -1.788,-0.326 -2.45,-0.978 -0.662,-0.651 -1.028,-1.523 -1.099,-2.615 m 6.946,-3.407 2.187,-0.281 c -0.345,-1.277 -0.983,-2.268 -1.915,-2.973 -0.932,-0.705 -2.122,-1.058 -3.571,-1.058 -1.824,0 -3.272,0.562 -4.34,1.687 -1.069,1.124 -1.604,2.701 -1.604,4.731 0,2.1 0.54,3.729 1.621,4.889 1.081,1.16 2.483,1.74 4.206,1.74 1.668,0 3.031,-0.568 4.087,-1.704 1.057,-1.136 1.586,-2.735 1.586,-4.794 0,-0.126 -0.004,-0.315 -0.011,-0.565 h -9.317 c 0.078,-1.373 0.467,-2.425 1.164,-3.155 0.699,-0.729 1.57,-1.095 2.613,-1.095 0.776,0 1.438,0.205 1.988,0.616 0.549,0.41 0.983,1.064 1.306,1.962"
           style="fill:#231f20;fill-opacity:1;fill-rule:nonzero;stroke:none"
           id="path907"
           inkscape:connector-curvature="0" /><path
           d="m 533.035,-19.739 h 6.969 c -0.095,1.052 -0.36,1.842 -0.799,2.368 -0.674,0.817 -1.548,1.225 -2.621,1.225 -0.972,0 -1.788,-0.326 -2.45,-0.978 -0.662,-0.651 -1.029,-1.523 -1.099,-2.615 m 6.945,-3.407 2.188,-0.281 c -0.345,-1.277 -0.983,-2.268 -1.915,-2.973 -0.932,-0.705 -2.122,-1.058 -3.57,-1.058 -1.826,0 -3.273,0.562 -4.341,1.687 -1.07,1.124 -1.604,2.701 -1.604,4.731 0,2.1 0.54,3.729 1.621,4.889 1.081,1.16 2.483,1.74 4.205,1.74 1.668,0 3.031,-0.568 4.088,-1.704 1.058,-1.136 1.586,-2.735 1.586,-4.794 0,-0.126 -0.004,-0.315 -0.011,-0.565 h -9.317 c 0.078,-1.373 0.467,-2.425 1.165,-3.155 0.697,-0.729 1.569,-1.095 2.612,-1.095 0.776,0 1.439,0.205 1.988,0.616 0.549,0.41 0.984,1.064 1.305,1.962"
           style="fill:#231f20;fill-opacity:1;fill-rule:nonzero;stroke:none"
           id="path909"
           inkscape:connector-curvature="0" /><path
           d="m 544.338,-21.646 2.156,0.188 c 0.102,-0.864 0.338,-1.574 0.709,-2.128 0.371,-0.554 0.948,-1.002 1.73,-1.344 0.781,-0.341 1.661,-0.512 2.637,-0.512 0.868,0 1.634,0.129 2.298,0.388 0.664,0.26 1.158,0.616 1.484,1.068 0.324,0.451 0.486,0.944 0.486,1.476 0,0.541 -0.156,1.013 -0.468,1.417 -0.311,0.404 -0.828,0.742 -1.549,1.017 -0.462,0.18 -1.484,0.461 -3.066,0.842 -1.583,0.38 -2.692,0.739 -3.328,1.077 -0.824,0.431 -1.438,0.967 -1.842,1.607 -0.404,0.639 -0.606,1.356 -0.606,2.149 0,0.871 0.247,1.685 0.741,2.442 0.493,0.757 1.215,1.332 2.163,1.725 0.948,0.392 2.003,0.588 3.163,0.588 1.278,0 2.404,-0.205 3.381,-0.616 0.976,-0.411 1.726,-1.015 2.252,-1.813 0.525,-0.798 0.807,-1.701 0.846,-2.711 l -2.187,-0.172 c -0.118,1.087 -0.515,1.908 -1.192,2.464 -0.678,0.556 -1.68,0.833 -3.003,0.833 -1.38,0 -2.384,-0.253 -3.015,-0.759 -0.631,-0.507 -0.946,-1.116 -0.946,-1.83 0,-0.62 0.223,-1.13 0.67,-1.53 0.438,-0.401 1.585,-0.811 3.437,-1.23 1.853,-0.42 3.124,-0.786 3.814,-1.099 1.002,-0.462 1.743,-1.048 2.221,-1.757 0.478,-0.709 0.717,-1.526 0.717,-2.449 0,-0.917 -0.263,-1.781 -0.787,-2.591 -0.525,-0.812 -1.277,-1.442 -2.26,-1.892 -0.982,-0.45 -2.089,-0.676 -3.317,-0.676 -1.558,0 -2.864,0.228 -3.916,0.682 -1.053,0.454 -1.879,1.138 -2.478,2.051 -0.598,0.912 -0.914,1.944 -0.945,3.095"
           style="fill:#231f20;fill-opacity:1;fill-rule:nonzero;stroke:none"
           id="path911"
           inkscape:connector-curvature="0" /><path
           d="m 566.063,-27.177 -6.666,17.235 h 2.472 l 4.478,-12.516 c 0.36,-1.003 0.662,-1.943 0.905,-2.82 0.267,0.939 0.576,1.88 0.929,2.82 l 4.657,12.516 h 2.331 l -6.748,-17.235 z"
           style="fill:#231f20;fill-opacity:1;fill-rule:nonzero;stroke:none"
           id="path913"
           inkscape:connector-curvature="0" /><path
           d="m 585.26,-20.427 v 2.031 h 7.297 v -6.388 c -1.12,-0.893 -2.277,-1.565 -3.468,-2.014 -1.191,-0.451 -2.413,-0.676 -3.666,-0.676 -1.694,0 -3.231,0.363 -4.613,1.088 -1.384,0.725 -2.428,1.774 -3.133,3.146 -0.705,1.372 -1.058,2.905 -1.058,4.598 0,1.678 0.351,3.244 1.052,4.698 0.701,1.455 1.71,2.535 3.026,3.24 1.317,0.706 2.833,1.058 4.549,1.058 1.245,0 2.372,-0.202 3.379,-0.606 1.007,-0.404 1.796,-0.968 2.368,-1.689 0.572,-0.722 1.007,-1.664 1.305,-2.827 l -2.058,-0.563 c -0.259,0.878 -0.58,1.568 -0.965,2.071 -0.383,0.503 -0.932,0.906 -1.645,1.208 -0.714,0.302 -1.506,0.453 -2.376,0.453 -1.042,0 -1.944,-0.158 -2.704,-0.476 -0.761,-0.317 -1.375,-0.735 -1.841,-1.252 -0.466,-0.517 -0.829,-1.085 -1.088,-1.704 -0.438,-1.066 -0.658,-2.222 -0.658,-3.468 0,-1.536 0.265,-2.821 0.794,-3.855 0.529,-1.036 1.299,-1.803 2.31,-2.305 1.011,-0.501 2.085,-0.752 3.222,-0.752 0.988,0 1.952,0.189 2.894,0.568 0.94,0.38 1.653,0.784 2.139,1.215 v 3.201 z"
           style="fill:#231f20;fill-opacity:1;fill-rule:nonzero;stroke:none"
           id="path915"
           inkscape:connector-curvature="0" /><path
           d="m 596.239,-24.771 h 2.406 v -2.406 h -2.406 z"
           style="fill:#231f20;fill-opacity:1;fill-rule:nonzero;stroke:none"
           id="path917"
           inkscape:connector-curvature="0" /><path
           d="m 603.705,-20.937 c 0,-1.599 0.349,-2.796 1.046,-3.593 0.697,-0.795 1.574,-1.194 2.632,-1.194 1.05,0 1.923,0.401 2.62,1.2 0.697,0.8 1.046,2.019 1.046,3.658 0,1.545 -0.351,2.715 -1.052,3.512 -0.701,0.794 -1.572,1.193 -2.614,1.193 -1.058,0 -1.935,-0.397 -2.632,-1.188 -0.697,-0.793 -1.046,-1.988 -1.046,-3.588 m -2.172,0.002 c 0,2.312 0.642,4.024 1.927,5.137 1.072,0.924 2.38,1.387 3.923,1.387 1.715,0 3.116,-0.563 4.205,-1.687 1.089,-1.125 1.633,-2.678 1.633,-4.661 0,-1.605 -0.242,-2.869 -0.723,-3.79 -0.481,-0.921 -1.183,-1.636 -2.102,-2.145 -0.92,-0.509 -1.924,-0.764 -3.013,-0.764 -1.746,0 -3.158,0.561 -4.235,1.681 -1.077,1.12 -1.615,2.735 -1.615,4.842"
           style="fill:#231f20;fill-opacity:1;fill-rule:nonzero;stroke:none"
           id="path919"
           inkscape:connector-curvature="0" /><path
           d="m 615.679,-27.177 v 12.485 h 1.89 v -1.895 c 0.488,0.886 0.937,1.471 1.35,1.752 0.412,0.283 0.865,0.424 1.361,0.424 0.715,0 1.442,-0.228 2.18,-0.682 l -0.74,-1.957 c -0.516,0.301 -1.032,0.451 -1.549,0.451 -0.461,0 -0.875,-0.138 -1.243,-0.417 -0.367,-0.278 -0.63,-0.664 -0.786,-1.158 -0.237,-0.752 -0.354,-1.575 -0.354,-2.468 v -6.535 z"
           style="fill:#231f20;fill-opacity:1;fill-rule:nonzero;stroke:none"
           id="path921"
           inkscape:connector-curvature="0" /><path
           d="m 625.077,-20.712 c 0,-1.639 0.325,-2.834 0.975,-3.586 0.649,-0.753 1.463,-1.129 2.441,-1.129 0.971,0 1.784,0.374 2.442,1.123 0.658,0.748 0.986,1.922 0.986,3.522 0,1.528 -0.338,2.68 -1.016,3.457 -0.676,0.775 -1.492,1.164 -2.447,1.164 -0.939,0 -1.737,-0.383 -2.395,-1.147 -0.657,-0.764 -0.986,-1.899 -0.986,-3.404 m -1.75,-7.496 2.063,-0.313 c 0.086,-0.632 0.325,-1.093 0.715,-1.382 0.525,-0.391 1.241,-0.586 2.148,-0.586 0.977,0 1.732,0.196 2.265,0.588 0.531,0.392 0.891,0.941 1.079,1.647 0.109,0.432 0.16,1.337 0.152,2.718 -0.924,-1.094 -2.074,-1.641 -3.453,-1.641 -1.715,0 -3.042,0.619 -3.982,1.858 -0.939,1.238 -1.409,2.722 -1.409,4.455 0,1.191 0.216,2.29 0.647,3.297 0.43,1.006 1.055,1.785 1.874,2.333 0.818,0.548 1.78,0.823 2.884,0.823 1.472,0 2.687,-0.594 3.642,-1.781 v 1.5 h 1.953 v -10.789 c 0,-1.944 -0.197,-3.321 -0.593,-4.131 -0.396,-0.811 -1.023,-1.451 -1.88,-1.922 -0.859,-0.47 -1.914,-0.705 -3.168,-0.705 -1.489,0 -2.692,0.335 -3.609,1.005 -0.917,0.67 -1.359,1.678 -1.328,3.026"
           style="fill:#231f20;fill-opacity:1;fill-rule:nonzero;stroke:none"
           id="path923"
           inkscape:connector-curvature="0" /><path
           d="m 224.049,495.765 11.098,-1.951 2.153,12.269 -11.097,1.946 z m -15.177,8.343 8.873,1.572 -1.738,9.812 -8.876,-1.572 z m -30.582,-0.287 -4.796,1.741 -1.573,-4.339 4.796,-1.742 z m 9.717,4.677 -4.89,4.095 -3.704,-4.423 4.888,-4.095 z m 9.421,8.24 -6.242,-3.611 3.991,-6.897 6.241,3.609 z m 60.859,-30.811 -12.202,7.032 -7.774,-13.485 12.204,-7.035 z m 16.033,-32.647 -11.325,13.477 -14.894,-12.518 11.323,-13.479 z m -25.512,-32.864 7.542,-20.675 22.85,8.337 -7.544,20.672 z m -63.414,80.594 2.626,-5.81 5.258,2.377 -2.628,5.81 z m 38.484,-78.391 4.355,-17.058 18.853,4.815 -4.357,17.059 z m -16.211,-52.681 24.202,-2.403 2.173,21.898 -24.2,2.404 z m 13.875,121.791 -8.68,2.435 -2.691,-9.595 8.678,-2.434 z m -15.599,1.237 -0.6,7.948 -7.191,-0.546 0.601,-7.945 z m -30.315,5.036 3.566,-3.65 3.3,3.227 -3.564,3.649 z m 71.176,-51.254 -7.941,11.63 -12.854,-8.777 7.942,-11.633 z m -10.162,27.265 -9.155,6.57 -7.262,-10.117 9.155,-6.572 z m -85.771,-109.805 20.763,-12.666 11.461,18.786 -20.762,12.668 z m 31.075,130.757 -4.374,-1.474 1.629,-4.835 4.374,1.475 z m 11.496,-3.139 -5.768,0.139 -0.153,-6.374 5.769,-0.14 z m 16.186,-31.383 6.586,7.476 -6.762,5.959 -6.586,-7.477 z m -24.77,-73.063 19.077,-3.841 3.474,17.258 -19.073,3.841 z m 20.747,95.842 -6.713,2.629 -2.906,-7.42 6.713,-2.631 z m 13.857,-66.792 -2.111,13.925 -15.388,-2.331 2.107,-13.927 z m -2.725,38.865 -10.931,-5.962 5.395,-9.895 10.935,5.967 z m -18.57,11.873 -4.908,5.282 -5.838,-5.425 4.909,-5.283 z m -0.588,-10.088 -9.179,-3.878 3.509,-8.303 9.178,3.878 z m -11.768,-42.639 -14.875,4.576 -4.144,-13.462 14.879,-4.576 z m 5.131,65.756 -5.136,2.627 -2.906,-5.675 5.137,-2.628 z m -26.912,-88.073 -15.519,11.735 -10.62,-14.039 15.518,-11.737 z m 32.049,45.053 -12.436,-0.629 0.568,-11.255 12.441,0.631 z m -98.863,-53.488 13.211,-20.42 18.476,11.953 -13.209,20.421 z m 79.518,99.832 4.581,-0.569 0.631,5.063 -4.58,0.568 z m 2.861,-36.423 -9.952,0.488 -0.445,-9.003 9.952,-0.488 z m -58.411,-43.968 -8.891,17.308 -15.661,-8.042 8.89,-17.309 z m 61.187,59.69 -7.615,-2.354 2.131,-6.889 7.614,2.355 z m -125.044,-38.299 3.042,-24.131 21.832,2.753 -3.042,24.13 z m 121.603,57.23 -3.879,2.5 -2.765,-4.287 3.88,-2.5 z m 4.713,-10.946 -3.487,4.596 -5.081,-3.853 3.488,-4.597 z m -14.036,-40.989 -11.478,4.829 -4.37,-10.386 11.481,-4.829 z m -19.116,-16.029 -11.418,10.577 -9.574,-10.33 11.42,-10.579 z m -81.235,36.85 0.5,-19.451 17.599,0.452 -0.501,19.45 z m 99.124,8.231 -7.88,1.182 -1.071,-7.131 7.883,-1.182 z m -63.104,-35.501 13.108,5.155 -5.696,14.485 -13.109,-5.154 z m 37.285,11.304 -8.245,9.33 -8.444,-7.461 8.249,-9.332 z m 29.284,36.493 -6.249,-1.268 1.149,-5.654 6.247,1.268 z m 1.649,6.253 -2.41,3.936 -4.351,-2.663 2.411,-3.936 z m -14.435,-31.509 -8.756,4.757 -4.304,-7.918 8.754,-4.759 z m -119.957,32.708 -7.728,-23.061 20.865,-6.992 7.729,23.06 z m 114.959,-17.239 -6.586,4.485 -4.058,-5.961 6.589,-4.484 z m -37.141,1.386 -10.846,-3.058 3.383,-11.988 10.845,3.062 z m 23.12,-9.018 -5.824,8.085 -7.315,-5.266 5.823,-8.085 z m 22.479,17.208 -6.181,1.569 -1.419,-5.593 6.18,-1.57 z m 4.199,4.918 -0.465,4.591 -5.075,-0.511 0.465,-4.593 z m -113.524,3.358 16.052,-7.23 7.989,17.742 -16.053,7.23 z m 8.727,40.678 -15.766,15.355 -16.968,-17.425 15.765,-15.352 z m 21.035,-47.612 -1.15,-15.524 14.044,-1.042 1.15,15.523 z m 41.611,6.576 -8.877,-1.572 1.739,-9.812 8.875,1.572 z M 95.124,503.505 82.922,510.54 75.15,497.052 87.354,490.02 Z m 60.022,-24.347 4.795,-1.741 1.575,4.338 -4.795,1.743 z m -45.757,8.056 -11.099,1.951 -2.155,-12.269 11.099,-1.946 z m 40.929,-16.828 3.705,4.423 -4.886,4.095 -3.707,-4.424 z m -91.203,59.313 11.327,-13.478 14.896,12.519 -11.327,13.479 z m 79.147,-52.95 -6.243,-3.609 3.99,-6.899 6.24,3.611 z m -53.633,85.814 -7.544,20.674 -22.846,-8.336 7.541,-20.672 z m 14.857,-17.552 -12.855,-8.78 7.943,-11.63 12.854,8.777 z m 10.073,15.35 -4.355,17.057 -18.853,-4.815 4.355,-17.059 z m 16.212,52.681 -24.203,2.402 -2.173,-21.897 24.202,-2.405 z m 22.272,-131.073 -2.625,5.809 -5.259,-2.377 2.626,-5.809 z m -36.147,9.281 8.679,-2.435 2.689,9.595 -8.677,2.434 z m 22.788,-0.694 -7.19,-0.543 0.602,-7.948 7.189,0.546 z m -37.891,18.41 9.155,-6.57 7.262,10.117 -9.152,6.572 z m 61.014,-23.989 -3.563,3.65 -3.302,-3.227 3.565,-3.649 z m -11.89,12.411 -5.769,0.14 -0.154,-6.375 5.767,-0.139 z m 36.647,121.383 -20.763,12.666 -11.459,-18.786 20.763,-12.667 z m -33.986,-23.172 -19.074,3.841 -3.478,-17.258 19.075,-3.841 z m -34.601,-29.05 2.108,-13.925 15.391,2.331 -2.109,13.927 z m 2.723,-38.865 10.931,5.962 -5.395,9.894 -10.933,-5.966 z m 11.131,-27.927 6.714,-2.629 2.906,7.42 -6.714,2.631 z m 2.738,16.821 -6.76,5.958 -6.588,-7.476 6.762,-5.959 z m 20.923,-28.563 4.372,1.473 -1.627,4.835 -4.374,-1.475 z m 17.915,102.84 15.519,-11.736 10.62,14.041 -15.52,11.736 z m 66.814,8.435 -13.212,20.42 -18.474,-11.953 13.208,-20.421 z m -85.686,-93.46 -5.136,2.628 -2.904,-5.676 5.136,-2.628 z m -13.179,39.971 12.436,0.63 -0.566,11.255 -12.44,-0.631 z m -1.5,-19.902 9.179,3.878 -3.505,8.303 -9.179,-3.878 z m 20.847,-26.441 -4.581,0.569 -0.63,-5.063 4.578,-0.568 z m -9.079,69.08 14.877,-4.577 4.144,13.463 -14.88,4.576 z m -1.608,-52.585 -4.909,5.283 -5.838,-5.425 4.908,-5.282 z m 17.814,37.21 11.478,-4.829 4.372,10.386 -11.483,4.829 z m -12.762,-33.004 7.611,2.354 -2.128,6.889 -7.614,-2.355 z m 125.044,38.299 -3.044,24.13 -21.832,-2.752 3.04,-24.13 z m -117.752,-47.027 -3.486,4.597 -5.082,-3.854 3.488,-4.596 z m 24.586,57.761 11.418,-10.577 9.574,10.331 -11.422,10.578 z m -21.793,-66.177 -3.882,2.5 -2.764,-4.287 3.88,-2.5 z m -7.309,32.866 9.952,-0.488 0.441,9.003 -9.952,0.488 z m 58.41,43.968 8.891,-17.307 15.66,8.041 -8.89,17.309 z m 82.081,-75.486 7.728,23.061 -20.865,6.992 -7.73,-23.06 z m -127.631,-0.074 -2.412,3.936 -4.351,-2.663 2.411,-3.936 z m 61.455,55.323 -13.105,-5.155 5.697,-14.485 13.108,5.154 z m 36.022,-27.27 -0.499,19.451 -17.6,-0.452 0.5,-19.45 z m -73.307,15.966 8.247,-9.33 8.444,7.461 -8.249,9.332 z m -16.495,-11.237 8.755,-4.757 4.306,7.918 -8.754,4.759 z m -12.787,-25.256 6.249,1.268 -1.147,5.654 -6.251,-1.268 z m 3.465,12.296 7.881,-1.182 1.068,7.131 -7.881,1.182 z m 1.661,-17.003 0.465,-4.591 5.076,0.511 -0.465,4.593 z m 83.764,3.576 1.151,15.524 -14.046,1.042 -1.152,-15.524 z m 38.005,-30.19 -16.97,-17.422 15.765,-15.355 16.969,17.425 z m -8.242,23.256 -16.054,7.229 -7.987,-17.741 16.049,-7.23 z m -73.71,22.665 -5.823,8.085 -7.314,-5.267 5.823,-8.084 z m -35.617,-14.389 6.18,-1.569 1.421,5.593 -6.182,1.569 z m 45.599,8.19 10.844,3.058 -3.383,11.988 -10.843,-3.062 z m -37.142,1.386 6.587,-4.485 4.059,5.96 -6.588,4.486 z"
           style="fill:#231f20;fill-opacity:1;fill-rule:nonzero;stroke:none"
           id="path925"
           inkscape:connector-curvature="0" /><path
           d="m 189.156,165.056 1.026,-0.026 -0.007,1.004 -0.99,0.03 z m 1.97,-0.672 0.747,0.237 -0.269,0.768 -0.766,-0.246 z m -2.876,16.387 3,-0.581 0.575,2.982 -3.019,0.59 z m 0.277,-4.469 -0.374,2.421 -2.42,-0.399 0.375,-2.408 z m 15.451,15.894 -3.731,-2.974 3.012,-3.705 3.719,2.962 z m -16.181,-22.584 -1.195,1.058 -1.005,-1.201 1.165,-1.028 z m 6.984,19.206 -1.927,-3.229 3.262,-1.987 1.951,3.268 z m -0.982,-23.284 -0.266,-0.417 0.449,-0.267 0.269,0.412 z m -4.977,1.884 -1.177,0.458 -0.439,-1.177 1.168,-0.458 z m -3.002,4.27 1.705,0.95 -0.944,1.716 -1.713,-0.973 z m 59.44,3.201 -8.687,3.338 -3.342,-8.681 8.687,-3.34 z m 12.051,-20.616 -8.793,7.645 -7.668,-8.799 8.802,-7.628 z m -41.097,37.985 -5.64,-1.911 1.923,-5.657 5.637,1.949 z m -23.37,-26.97 -0.506,-0.408 0.423,-0.504 0.5,0.412 z m 37.745,21.823 -7.455,0.137 -0.136,-7.46 7.447,-0.142 z m 4.887,-83.856 2.836,-17.975 17.997,2.846 -2.85,17.97 z m -49.089,45.011 -0.788,0.61 -0.615,-0.803 0.812,-0.624 z m 36.188,-61.422 -14.435,1.801 -1.777,-14.455 8.59,-1.054 -4.12,-21.137 22.34,-4.358 4.322,22.319 -16.59,3.247 z m -35.414,60.065 -0.764,0.246 -0.212,-0.781 0.74,-0.247 z m -2.123,5.314 1.523,0.336 -0.344,1.56 -1.519,-0.378 z m 41.923,-16.615 4.509,5.96 -5.95,4.489 -4.499,-5.953 z m -31.265,27.807 -2.206,-2.092 2.084,-2.236 2.218,2.073 z m 12.726,-7.073 4.747,0.21 -0.24,4.771 -4.766,-0.218 z m -19.192,-11.093 -0.207,0.484 -0.463,-0.182 0.205,-0.479 z m 33.633,8.931 -5.684,1.764 -1.773,-5.706 5.708,-1.734 z m -30.656,5.544 -2.193,1.099 -1.11,-2.17 2.181,-1.116 z m -6.102,-9.539 -0.687,1.058 -1.042,-0.692 0.672,-1.06 z m 17.397,13.806 -3.458,-1.477 1.471,-3.528 3.503,1.5 z m -16.048,-17.929 0.048,-0.656 0.644,0.04 -0.041,0.651 z m -1.048,11.271 -0.221,-1.929 1.936,-0.23 0.247,1.936 z m 44.683,-26.472 -7.809,-5.06 5.068,-7.808 7.807,5.059 z m 2.698,-31.566 -2.621,11.351 -11.376,-2.608 2.638,-11.35 z m -55.927,-44.653 16.234,-8.277 8.258,16.213 -16.221,8.275 z m -4.87,78.71 -0.549,0.354 -0.344,-0.554 0.545,-0.349 z m 0.528,-0.831 -0.477,0.126 -0.119,-0.509 0.477,-0.131 z m -1.003,5.377 1.256,-0.059 0.071,1.257 -1.248,0.06 z m 3.666,3.059 -1.455,0.585 -0.617,-1.429 1.431,-0.625 z m -10.13,-75.801 -10.62,9.944 -9.933,-10.655 6.325,-5.898 -15.751,-14.674 15.507,-16.665 16.617,15.52 -11.513,12.377 z m -55.104,0.233 8.266,-16.237 16.211,8.261 -8.261,16.229 z m 73.37,76.58 -1.126,2.176 -2.171,-1.101 1.108,-2.184 z m -11.722,-4.893 -0.968,-0.286 0.292,-0.984 0.958,0.317 z m 23.372,1.705 -3.664,0.838 -0.886,-3.718 3.715,-0.847 z m -23.91,-4.706 0.648,0.489 -0.475,0.65 -0.631,-0.504 z m 25.456,-13.415 3.595,-4.762 4.754,3.567 -3.565,4.767 z m 1.298,-24.896 -9.293,0.495 -0.49,-9.293 9.292,-0.496 z m -11.825,-16.401 -10.731,4.575 -4.54,-10.731 10.721,-4.568 z m 15.039,51.714 -3.985,2.629 -2.591,-4.005 3.966,-2.625 z m -12.344,8.774 -0.371,3.052 -3.013,-0.394 0.372,-3.035 z m -10.004,2.26 -1.458,1.327 -1.312,-1.422 1.431,-1.327 z m 16.42,-32.953 2.166,-7.128 7.149,2.169 -2.176,7.133 z m -37.156,26.238 1.382,0.809 -0.837,1.326 -1.336,-0.793 z m 13.244,-15.104 2.865,2.523 -2.471,2.83 -2.901,-2.487 z M 81.1,110.555 63.129,113.412 60.274,95.416 78.245,92.575 Z m 74.041,24.614 -0.952,0.339 -0.343,-0.964 0.962,-0.308 z m 20.286,-22.148 -1.681,4.471 -4.451,-1.721 1.666,-4.449 z m -70.602,-17.899 -14.298,-2.779 1.65,-8.49 -21.373,-2.618 2.756,-22.591 22.562,2.785 -2.035,16.784 13.484,2.623 z m 57.084,39.599 1.922,0.369 -0.399,1.926 -1.901,-0.383 z m -8.872,-2.179 -0.607,-0.253 0.237,-0.601 0.605,0.244 z m 0.713,1.34 -0.807,-0.039 -0.004,-0.782 0.814,0.015 z m -0.937,-3.283 0.399,0.349 -0.314,0.383 -0.396,-0.348 z m 12.835,-23.353 0.113,-5.963 5.941,0.086 -0.079,5.952 z m 6.441,22.818 -2.671,1.448 -1.482,-2.668 2.657,-1.469 z m -16.528,5.822 0.977,-0.791 0.8,0.978 -0.979,0.781 z m 12.308,-1.221 -2.403,0.389 -0.388,-2.421 2.422,-0.394 z m -15.806,-48.324 -7.225,5.867 -5.857,-7.235 7.226,-5.863 z m 12.736,9.992 -7.058,2.442 -2.437,-7.042 7.061,-2.448 z m -31.937,-16.311 -5.995,10.01 -9.979,-6.012 5.987,-9.999 z m -42.367,43.973 -11.608,1 -1.032,-11.609 11.605,-1.014 z m 44.809,18.062 0.026,-0.495 0.524,0.045 -0.028,0.494 z m -75.648,58.312 6.666,-12.016 12.736,7.033 -7.058,12.739 -7.569,-4.198 -9.092,19.517 -20.636,-9.6 9.623,-20.598 z m 88.52,-66.113 1.722,1.746 -1.717,1.724 -1.735,-1.729 z m -11.525,8.744 -0.637,0.155 -0.162,-0.625 0.63,-0.163 z m -96.866,24.492 12.866,-12.864 12.88,12.875 -12.861,12.868 z m 110.823,-37.695 -1.306,2.745 -2.771,-1.293 1.288,-2.75 z m -31.836,-27.273 6.114,4.274 -4.276,6.124 -6.108,-4.269 z m 19.246,41.141 -0.674,0.445 -0.465,-0.631 0.668,-0.465 z m -1.152,-31.99 -4.878,3.446 -3.416,-4.888 4.859,-3.421 z m 8.077,10.161 3.804,0.359 -0.339,3.743 -3.809,-0.308 z m -0.381,-3.184 -4.613,1.226 -1.266,-4.581 4.609,-1.246 z m -47.242,-5.872 2.4,-8.99 8.988,2.406 -2.396,8.991 z m 49.56,25.937 0.812,1.794 -1.764,0.807 -0.82,-1.769 z m -6.979,5.176 -0.57,0.833 -0.847,-0.581 0.597,-0.812 z m 0.76,0.332 0.326,-1.216 1.221,0.324 -0.333,1.205 z m 2.596,-0.827 -0.152,-1.559 1.593,-0.156 0.105,1.563 z m -67.605,-2.331 -13.199,6.155 -3.656,-7.84 -18.826,10.448 -11.054,-19.896 19.892,-11.009 8.216,14.774 12.455,-5.803 z m 35.653,-5.444 -1.922,5.655 -5.637,-1.946 1.919,-5.62 z m 24.978,20.878 -1.166,1.027 -1.034,-1.169 1.197,-1.06 z m -9.184,-19.35 1.926,3.23 -3.26,1.986 -1.954,-3.267 z m 2.445,23.944 -0.424,0.499 -0.5,-0.412 0.416,-0.5 z m -48.513,11.756 -8.804,7.626 -7.657,-8.782 8.793,-7.642 z m 52.599,-27.652 -3,0.58 -0.575,-2.981 3.021,-0.591 z m -15.728,-11.426 3.731,2.976 -3.012,3.703 -3.718,-2.963 z m 18.16,20.506 -1.707,-0.949 0.944,-1.714 1.713,0.974 z m -3.006,4.275 1.179,-0.46 0.439,1.175 -1.17,0.46 z m -46.653,64.161 -2.835,17.973 -17.997,-2.844 2.85,-17.97 z m 41.677,-62.28 0.267,0.418 -0.449,0.267 -0.271,-0.412 z m -39.431,-4.013 -8.687,3.342 -3.342,-8.683 8.687,-3.339 z m 44.702,-6.754 0.376,-2.422 2.42,0.4 -0.374,2.408 z m -2.31,11.161 -0.287,0.757 -0.747,-0.237 0.271,-0.768 z m -39.751,-21.971 7.457,-0.136 0.137,7.462 -7.447,0.14 z m 40.414,21.077 0.993,-0.031 0.026,1.01 -1.022,0.024 z m 12.315,111.392 -16.231,8.277 -8.259,-16.212 16.219,-8.275 z m -44.712,-32.203 14.433,-1.801 1.775,14.459 -8.588,1.054 4.118,21.135 -22.338,4.358 -4.321,-22.318 16.589,-3.248 z m 36.165,-70.485 0.223,1.925 -1.937,0.233 -0.244,-1.939 z m 1.362,7.839 -1.057,-0.691 0.685,-1.061 1.042,0.693 z m -18.456,-14.499 3.456,1.477 -1.471,3.527 -3.501,-1.498 z m 18.465,11.77 -1.525,-0.34 0.344,-1.556 1.518,0.377 z m -1.348,3.954 0.785,-0.61 0.616,0.802 -0.812,0.626 z m -40.578,12.658 -4.509,-5.96 5.951,-4.488 4.502,5.953 z m 31.391,-23.479 -2.218,-2.073 2.093,-2.256 2.208,2.093 z m 6.343,13.839 0.206,-0.485 0.462,0.182 -0.205,0.479 z m 1.777,-0.813 -0.049,0.655 -0.647,-0.04 0.043,-0.65 z m -1.452,-12.593 -2.182,1.116 -1.12,-2.185 2.193,-1.1 z m 1.743,11.746 0.764,-0.248 0.212,0.783 -0.742,0.247 z m -21.261,-9.433 -4.75,-0.209 0.241,-4.773 4.769,0.217 z m -14.005,59.655 -11.358,-2.608 2.619,-11.352 11.378,2.609 z m -8.663,-34.175 7.809,5.06 -5.066,7.809 -7.808,-5.06 z m 15.683,-19.377 -5.706,1.735 -1.751,-5.674 5.686,-1.767 z m 34.389,7.194 -1.11,2.183 -2.19,-1.109 1.127,-2.173 z m -15.077,33.887 -2.167,7.127 -7.148,-2.168 2.173,-7.135 z m 30.045,44.001 10.62,-9.943 9.933,10.654 -6.326,5.899 15.752,14.676 -15.508,16.662 -16.615,-15.519 11.51,-12.379 z m -6.656,-69.408 0.475,-0.651 0.631,0.506 -0.457,0.635 z m -24.808,13.903 -3.593,4.763 -4.754,-3.566 3.562,-4.767 z m 86.568,55.273 -8.268,16.234 -16.211,-8.258 8.26,-16.229 z m -60.975,-70.417 -0.955,-0.317 0.279,-0.953 0.969,0.286 z m -19.495,-0.097 -3.716,0.85 -0.834,-3.73 3.665,-0.836 z m 18.015,3.896 -0.119,-0.515 0.479,-0.124 0.119,0.509 z m -25.408,36.243 9.293,-0.495 0.489,9.293 -9.293,0.495 z m 9.128,-44.087 0.37,-3.053 3.012,0.395 -0.37,3.035 z m -12.345,8.772 3.986,-2.627 2.589,4.005 -3.963,2.625 z m 29.035,-2.275 0.548,-0.352 0.347,0.553 -0.546,0.349 z m -0.852,-5.74 1.25,-0.061 0.076,1.256 -1.256,0.065 z m -5.834,-3.019 1.458,-1.331 1.312,1.428 -1.431,1.326 z m -7.31,62.749 10.734,-4.576 4.538,10.733 -10.723,4.568 z m 10.807,-61.591 1.456,-0.58 0.615,1.421 -1.431,0.625 z m 10.53,33.709 -0.11,5.963 -5.941,-0.085 0.078,-5.954 z m 10.841,-26.99 -0.332,-0.934 0.95,-0.343 0.343,0.969 z m -4.134,-1.16 -1.379,-0.807 0.835,-1.328 1.336,0.786 z m 5.192,1.513 0.807,0.04 0.007,0.782 -0.818,-0.015 z m -8.157,-0.838 -1.923,-0.367 0.399,-1.93 1.902,0.385 z m -9.055,23.398 -4.463,-1.7 1.679,-4.469 4.452,1.72 z m 15.404,-24.563 -0.98,0.786 -0.799,-0.979 0.979,-0.775 z m 2.746,5.287 -0.397,-0.35 0.311,-0.382 0.397,0.347 z m 0.75,44.26 7.223,-5.867 5.861,7.233 -7.226,5.862 z m -0.974,-46.202 0.609,0.251 -0.238,0.602 -0.605,-0.245 z m -2.269,40.808 -7.059,2.446 -2.435,-7.047 7.059,-2.442 z m -9.77,-40.9 -2.426,0.393 -0.368,-2.425 2.407,-0.388 z m 42.198,58.611 -9.984,-6.002 5.995,-10.01 9.979,6.014 z m 41.779,-36.533 17.97,-2.855 2.855,17.994 -17.969,2.841 z m -91.086,-9.739 -2.867,-2.527 2.474,-2.824 2.9,2.487 z m 1.591,-7.082 -1.496,-2.688 2.672,-1.448 1.48,2.669 z m 65.768,32.254 14.298,2.777 -1.651,8.492 21.374,2.617 -2.754,22.591 -22.564,-2.784 2.038,-16.784 -13.488,-2.625 z m 45.169,-105.249 -6.665,12.017 -12.738,-7.032 7.063,-12.734 7.566,4.193 9.09,-19.519 20.637,9.601 -9.623,20.599 z m -15.996,59.303 13.198,-6.156 3.658,7.842 18.826,-10.448 11.054,19.898 -19.893,11.007 -8.215,-14.774 -12.457,5.805 z m -21.669,28.287 -2.398,8.991 -8.991,-2.408 2.401,-8.989 z m 19.467,-0.605 -11.607,1.014 -1.035,-11.622 11.61,-1.001 z m 38.072,-54.107 -12.869,12.866 -12.878,-12.876 12.859,-12.87 z m -95.52,25.436 -0.026,0.495 -0.526,-0.046 0.029,-0.494 z m -5.355,-2.168 -0.33,1.216 -1.222,-0.324 0.334,-1.205 z m 3.781,0.746 -0.67,0.463 -0.471,-0.65 0.676,-0.443 z m -8.065,21.642 -3.805,-0.357 0.339,-3.744 3.808,0.307 z m 8.076,10.16 4.879,-3.444 3.416,4.887 -4.858,3.421 z m 0.215,-31.323 0.639,-0.157 0.16,0.626 -0.631,0.163 z m 17.879,40.474 -6.114,-4.27 4.275,-6.126 6.11,4.266 z m -25.789,-16.128 4.614,-1.225 1.266,4.581 -4.612,1.247 z M 175,187.255 l -0.812,-1.798 1.763,-0.808 0.82,1.772 z m 2.075,-4.532 1.548,-0.151 0.15,1.559 -1.592,0.156 z m 5.475,-1.477 0.845,0.58 -0.595,0.811 -0.821,-0.56 z m -8.846,10.468 -1.724,-1.746 1.718,-1.726 1.737,1.729 z m -2.432,4.459 1.307,-2.744 2.769,1.292 -1.285,2.75 z"
           style="fill:#231f20;fill-opacity:1;fill-rule:nonzero;stroke:none"
           id="path927"
           inkscape:connector-curvature="0" /><path
           d="m 540.131,495.475 -8.825,0.048 -0.052,-8.838 8.816,-0.05 z m -23.731,3.511 2.361,-6.659 6.636,2.393 -2.358,6.621 z m 55.844,-41.944 -10.518,8.905 -8.938,-10.523 10.532,-8.895 z m -52.609,7.648 -5.639,-0.33 0.384,-5.634 5.614,0.325 z m -11.065,36.391 -4.372,-3.581 3.622,-4.333 4.351,3.562 z m 49.099,-19.838 -10.327,3.814 -2.8,-7.572 -1.041,4.307 -6.855,-1.641 1.655,-6.873 5.498,1.351 10.055,-3.712 z m 20.833,-58.049 -8.073,14.11 -14.959,-8.51 0.246,-0.43 -10.265,-2.891 5.833,-20.721 20.75,5.844 -1.902,6.732 2.774,1.586 11.057,-22.949 24.264,11.675 -11.701,24.22 z m -45.928,-18.794 -17.21,0.109 v -0.493 l -10.336,2.629 -5.308,-20.863 20.889,-5.314 1.721,6.782 3.196,-0.015 -1.901,-25.403 26.852,-2.021 1.976,26.825 -19.943,1.509 z m 11.443,16.186 -4.66,12.972 -12.999,-4.645 4.672,-12.969 z m -8.993,21.213 8.47,7.034 -7.038,8.465 -6.21,-5.154 1.253,4.248 -6.758,2.005 -2.004,-6.778 5.438,-1.579 z m -11.47,41.754 -6.928,1.28 -1.286,-6.947 6.942,-1.246 z m -17.269,0.53 5.55,0.908 -0.943,5.572 -5.576,-0.915 z m 24.664,-21.782 4.472,7.627 -7.619,4.454 -4.464,-7.629 z m -28.671,-8.787 -5.048,2.535 -2.483,-5.071 5.022,-2.527 z m 12.733,-25.662 -1.86,10.851 -7.957,-1.361 3.21,3.055 -4.848,5.114 -5.126,-4.867 3.92,-4.086 1.811,-10.563 z m -0.815,29.973 -7.678,-4.376 4.365,-7.66 7.684,4.369 z m -10.403,-41.133 -13.581,2.478 -2.437,-13.569 13.568,-2.472 z m 3.852,63.6 -5.288,1.996 -1.944,-5.304 5.26,-1.987 z m 7.458,-12.401 -5.358,4.573 -4.588,-5.374 5.39,-4.551 z m -31.764,-73.058 -14.849,8.699 -0.25,-0.428 -7.636,7.444 -15.027,-15.412 15.436,-15.047 4.878,5.012 2.761,-1.61 -14.345,-21.049 22.242,-15.175 15.125,22.241 -16.518,11.279 z m -6.383,54.552 4.703,3.13 -3.103,4.718 -4.69,-3.149 z m -13.652,12.573 -0.329,5.639 -5.635,-0.384 0.324,-5.613 z m 28.475,11.813 3.562,-4.35 4.353,3.601 -3.58,4.371 z m 8.176,-15.218 -2.354,6.639 -6.66,-2.36 2.391,-6.636 z m -72.547,-32.43 -0.43,-0.245 -2.892,10.265 -20.721,-5.836 5.845,-20.748 6.732,1.901 1.585,-2.774 -22.95,-11.055 11.676,-24.265 24.221,11.701 -8.666,18.025 14.11,8.072 z m 37.153,-6.255 -10.523,8.937 -8.895,-10.533 10.514,-8.923 z m 29.575,30.421 -8.838,0.049 -0.049,-8.817 8.84,-0.058 z m -14.281,-26.365 3.816,10.326 -7.571,2.8 4.305,1.042 -1.642,6.854 -6.869,-1.654 1.35,-5.496 -3.714,-10.056 z m -23.942,21.211 -5.156,6.211 4.248,-1.251 2.006,6.757 -6.779,2.003 -1.577,-5.437 -8.244,-6.851 7.034,-8.467 z m -11.788,32.903 -4.867,5.125 -4.086,-3.919 -10.564,-1.813 1.857,-10.85 10.851,1.86 -1.36,7.956 3.054,-3.208 z m 2.94,3.785 5.063,-2.509 2.534,5.047 -5.072,2.487 z m 25.931,-28.031 -7.63,4.462 -4.45,-7.611 7.625,-4.47 z m -69.871,12.436 -0.497,0.002 2.629,10.335 -20.861,5.308 -5.314,-20.891 6.779,-1.719 -0.013,-3.197 -25.402,1.902 -2.02,-26.852 26.825,-1.977 1.507,19.943 16.255,-0.065 z m 85.138,10.048 -5.566,-0.968 0.908,-5.55 5.57,0.942 z m -4.816,-11.31 -6.947,1.287 -1.247,-6.943 6.915,-1.271 z m -51.276,-22.731 -4.644,12.999 -12.969,-4.672 4.642,-12.985 z m 51.005,53.141 2.837,-0.005 0.034,2.947 2.455,-1.422 1.503,2.536 1.415,-2.459 2.57,1.444 -0.005,-2.837 2.949,-0.034 -1.424,-2.455 2.535,-1.504 -2.457,-1.414 1.442,-2.57 -2.837,0.004 -0.033,-2.946 -2.455,1.422 -1.505,-2.536 -1.414,2.459 -2.57,-1.444 0.006,2.837 -2.948,0.035 1.422,2.454 -2.535,1.504 2.457,1.414 z m 2.153,-12.424 1.763,-3.069 3.145,1.825 3.061,-1.775 1.811,3.153 3.539,-0.007 -0.007,3.635 3.069,1.764 -1.826,3.146 1.776,3.061 -3.153,1.811 0.008,3.538 -3.638,-0.007 -1.763,3.069 -3.145,-1.825 -3.061,1.776 -1.811,-3.153 -3.539,0.007 0.007,-3.635 -3.069,-1.764 1.826,-3.147 -1.776,-3.06 3.154,-1.812 -0.007,-3.539 z m -28.891,-15.556 -4.375,7.678 -7.662,-4.364 4.37,-7.686 z m -3.74,40.33 -4.7,-3.089 3.131,-4.704 4.718,3.105 z m 28.202,-28.491 -5.301,1.943 -1.989,-5.259 5.297,-1.969 z m -101.5,27.202 14.045,-8.184 8.701,14.85 -0.428,0.249 7.445,7.636 -15.414,15.027 -15.046,-15.434 5.013,-4.88 -1.611,-2.761 -21.049,14.347 -15.175,-22.244 22.242,-15.124 z m 87.105,-39.947 4.574,5.358 -5.375,4.588 -4.552,-5.39 z m -62.289,27.327 -2.473,-13.566 13.564,-2.451 2.476,13.58 z m 71.79,-8.338 -3.62,4.334 -4.351,-3.561 3.601,-4.355 z m -12.2,-1.487 -2.361,6.66 -6.636,-2.393 2.358,-6.622 z m -62.102,75.793 8.073,-14.11 14.959,8.509 -0.246,0.43 10.265,2.892 -5.833,20.721 -20.75,-5.844 1.902,-6.732 -2.774,-1.586 -11.055,22.951 -24.266,-11.677 11.701,-24.22 z m 33.96,-54.293 1.042,-4.305 6.854,1.642 -1.655,6.872 -5.498,-1.35 -10.054,3.712 -3.818,-10.327 10.329,-3.814 z m 13.288,-9.197 -8.816,0.049 -0.061,-8.84 8.825,-0.048 z m -32.066,40.155 -8.924,-10.513 10.518,-8.905 8.938,10.523 z m 43.686,-18.161 5.638,0.329 -0.384,5.635 -5.614,-0.324 z m -15.39,22.893 -8.469,-7.036 7.037,-8.466 6.208,5.156 -1.251,-4.249 6.758,-2.005 2.004,6.778 -5.436,1.578 z m 11.47,-41.756 6.928,-1.28 1.286,6.947 -6.942,1.247 z m 21.276,30.039 5.048,-2.535 2.485,5.071 -5.023,2.528 z m -30.296,49.114 17.21,-0.109 0.002,0.494 10.334,-2.629 5.31,20.862 -20.891,5.314 -1.721,-6.781 -3.196,0.015 1.903,25.402 -26.854,2.02 -1.975,-26.824 19.942,-1.509 z m -11.443,-16.186 4.66,-12.972 13,4.644 -4.673,12.97 z m 13.068,-41.715 -4.472,-7.627 7.619,-4.455 4.464,7.63 z m 20.057,-28.262 5.576,0.915 -0.969,5.565 -5.55,-0.909 z m 3.248,10.27 5.287,-1.994 1.944,5.303 -5.26,1.988 z m 24.304,85.462 14.85,-8.701 0.248,0.428 7.638,-7.444 15.027,15.412 -15.434,15.047 -4.88,-5.013 -2.761,1.611 14.347,21.049 -22.244,15.175 -15.124,-22.243 16.516,-11.277 z m -31.762,-73.061 5.357,-4.572 4.588,5.374 -5.39,4.55 z m 0.089,40.04 1.862,-10.851 7.957,1.361 -3.21,-3.055 4.85,-5.114 5.124,4.867 -3.919,4.086 -1.812,10.564 z m 38.057,-21.532 -4.703,-3.131 3.103,-4.717 4.688,3.148 z m -37.24,-8.441 7.678,4.376 -4.365,7.66 -7.684,-4.368 z m 10.403,41.133 13.581,-2.477 2.437,13.568 -13.567,2.472 z m 9.657,-33.597 8.838,-0.049 0.049,8.817 -8.839,0.058 z m 66.728,24.166 0.431,0.247 2.891,-10.267 20.719,5.836 -5.843,20.747 -6.732,-1.9 -1.585,2.773 22.95,11.056 -11.678,24.265 -24.219,-11.7 8.666,-18.025 -14.11,-8.072 z m -68.706,-51.27 4.335,3.621 -3.562,4.351 -4.354,-3.602 z m 32.81,15.435 0.329,-5.639 5.635,0.384 -0.324,5.614 z m -1.256,42.09 10.522,-8.937 8.894,10.534 -10.511,8.924 z m -15.295,-4.056 -3.816,-10.326 7.571,-2.8 -4.305,-1.042 1.642,-6.854 6.871,1.654 -1.352,5.496 3.714,10.056 z m -13.477,-32.271 -6.623,-2.357 2.354,-6.64 6.66,2.36 z m 46.267,-25.628 -5.063,2.509 -2.534,-5.047 5.072,-2.487 z m 43.942,15.595 0.496,-0.002 -2.63,-10.335 20.862,-5.308 5.313,20.89 -6.781,1.72 0.015,3.197 25.402,-1.902 2.02,26.852 -26.825,1.976 -1.506,-19.942 -16.256,0.064 z m -16.077,28.651 -12.972,-4.658 4.645,-13 12.969,4.674 z m -64.247,-27.39 6.947,-1.285 1.247,6.943 -6.913,1.27 z m 27.534,19.832 5.158,-6.211 -4.25,1.252 -2.006,-6.758 6.779,-2.003 1.579,5.438 8.242,6.85 -7.034,8.468 z m -32.349,-31.141 5.565,0.969 -0.907,5.549 -5.571,-0.942 z m 15.266,22.485 7.63,-4.464 4.452,7.612 -7.627,4.471 z m 28.869,-24.248 4.87,-5.124 4.085,3.919 10.564,1.812 -1.857,10.851 -10.851,-1.86 1.36,-7.956 -3.054,3.208 z m 76.005,-11.88 -11.278,-16.518 -14.045,8.185 -8.7,-14.851 0.427,-0.249 -7.445,-7.635 15.412,-15.029 15.049,15.436 -5.013,4.879 1.61,2.76 21.049,-14.346 15.175,22.243 z m -98.383,23.429 -4.572,-5.358 5.373,-4.588 4.551,5.391 z m -14.397,-12.745 5.305,-1.944 1.987,5.26 -5.297,1.97 z m 24.464,11.839 4.375,-7.678 7.662,4.364 -4.37,7.685 z m 54.695,-12.855 -13.562,2.451 -2.478,-13.58 13.567,-2.437 z m -50.955,-27.475 4.7,3.089 -3.129,4.704 -4.72,-3.105 z"
           style="fill:#231f20;fill-opacity:1;fill-rule:nonzero;stroke:none"
           id="path929"
           inkscape:connector-curvature="0" /><path
           d="m 493.104,159.016 -1.119,-1.094 0.085,-0.088 -1.466,-0.543 0.042,-0.116 -1.56,0.1 -0.011,-0.122 -1.384,0.726 -0.057,-0.108 -0.971,1.226 -0.097,-0.076 -0.386,1.516 -0.119,-0.03 0.262,1.542 -0.122,0.023 0.869,1.3 -0.101,0.069 1.319,0.836 -0.064,0.103 1.547,0.228 -0.017,0.122 1.507,-0.422 0.034,0.117 1.204,-0.998 0.078,0.094 0.694,-1.401 0.111,0.051 0.064,-1.56 0.122,0.003 -0.577,-1.452 z m 4.346,2.569 -0.126,3.082 -0.831,-0.037 -1.371,2.764 -0.743,-0.372 -2.375,1.968 -0.527,-0.641 -2.971,0.832 -0.221,-0.801 -3.054,-0.448 0.125,-0.824 -2.605,-1.65 0.447,-0.7 -1.71,-2.57 0.695,-0.458 -0.518,-3.04 0.821,-0.135 0.763,-2.99 0.805,0.208 1.915,-2.419 0.65,0.518 2.734,-1.431 0.382,0.739 3.079,-0.198 0.05,0.832 2.893,1.073 -0.294,0.778 2.208,2.156 -0.584,0.593 1.137,2.867 z m 52.134,-4.864 -9.647,2.023 -1.837,-8.73 -5.92,-1.687 1.735,-6.084 6.067,1.768 -1.424,4.954 8.998,-1.885 z m -35.911,4.711 5.565,2.988 -2.956,5.553 -5.568,-2.954 z m 15.833,-31.267 7.455,-5.382 5.771,7.983 -7.987,5.772 -5.229,-7.229 -6.094,0.867 -0.889,-6.263 6.26,-0.852 z m 36.151,7.039 -10.481,6.504 -6.534,-10.489 10.494,-6.491 z m -33.473,29.818 -7.819,-1.116 0.392,-2.76 -0.911,-1.563 1.233,-0.704 0.4,-2.803 7.81,1.113 z m 43.453,-58.965 -3.254,4.134 -6.077,10.447 -16.671,-9.683 9.672,-16.664 4.104,2.385 0.633,-0.804 5.716,4.492 1.632,0.949 12.65,-18.649 19.952,13.519 -13.536,19.906 z m -63.793,43.618 6.302,0.467 -0.445,6.273 -6.288,-0.431 z m 34.896,-73.962 -1.29,5.1 -1.303,12.015 -19.168,-2.064 2.06,-19.159 4.718,0.509 0.25,-0.991 7.037,1.776 1.891,0.206 3.971,-22.181 23.726,4.232 -4.27,23.692 z m 2.74,30.686 -6.93,10.204 -10.235,-6.924 6.947,-10.199 z m -18.453,40.855 -7.595,2.159 -0.765,-2.681 -1.468,-1.056 0.84,-1.146 -0.775,-2.72 7.59,-2.163 z m -20.191,-62.755 12.148,2.165 -2.178,12.14 -12.168,-2.161 z m 3.462,60.783 -5.92,2.163 -2.172,-5.939 5.943,-2.137 z m 7.485,-25.093 -7.718,-4.475 -5.213,3.27 -3.362,-5.361 5.373,-3.325 2.729,4.374 4.621,-7.948 8.52,4.943 z m 0.962,11.301 -6.06,5.065 -1.789,-2.138 -1.771,-0.37 0.302,-1.388 -1.817,-2.171 6.055,-5.061 z m -13.849,-66.564 3.698,11.508 -18.352,5.911 -5.91,-18.339 4.517,-1.454 -0.173,-1.008 7.149,-1.238 1.813,-0.582 -5.396,-21.879 23.397,-5.782 5.737,23.378 -17.375,4.301 z m -14.697,80.848 -2.236,2.502 -3.464,-3.157 -1.025,3.196 -4.449,-1.475 0.364,3.336 -4.666,0.463 1.69,2.897 -4.074,2.321 2.724,1.961 -2.78,3.777 3.286,0.684 -1.003,4.579 3.282,-0.711 0.947,4.591 2.706,-1.983 2.733,3.81 1.666,-2.915 4.046,2.37 0.336,-3.339 4.661,0.518 -1.051,-3.187 4.468,-1.422 -2.256,-2.486 3.503,-3.115 -3.073,-1.352 1.935,-4.272 -3.357,0.014 0.028,-4.689 -3.061,1.378 z m 6.489,2.219 -0.722,0.326 4.204,-0.02 -0.005,5.059 -0.79,0.003 3.848,1.692 -2.062,4.62 -0.726,-0.319 2.829,3.11 -3.764,3.383 -0.531,-0.587 1.318,3.992 -4.812,1.56 -0.25,-0.754 -0.417,4.184 -5.033,-0.533 0.081,-0.789 -2.086,3.651 -4.377,-2.533 0.391,-0.687 -3.389,2.487 -2.971,-4.096 0.638,-0.468 -4.106,0.895 -1.049,-4.951 0.775,-0.168 -4.117,-0.854 1.057,-4.947 0.777,0.161 -3.415,-2.455 2.978,-4.091 0.642,0.464 -2.119,-3.631 4.383,-2.526 0.401,0.683 -0.46,-4.178 5.03,-0.525 0.088,0.789 1.279,-4.005 4.811,1.568 -0.244,0.755 2.8,-3.139 3.756,3.388 -0.527,0.592 3.833,-1.729 z m 5.971,-11.499 -4.528,4.386 -4.4,-4.544 4.561,-4.369 z M 493.7,93.39 l -11.995,2.972 -2.932,-11.985 11.981,-2.966 z m 11.59,36.161 -2.503,-1.225 -1.767,0.384 -0.289,-1.392 -2.543,-1.245 3.473,-7.087 7.106,3.475 z m -0.941,-26.822 -1.058,9.798 -8.871,-0.95 -3.434,5.109 -5.25,-3.53 3.557,-5.223 4.271,2.885 0.989,-9.14 z m -35.307,-35.446 8.059,9.01 -14.362,12.863 -12.858,-14.349 3.535,-3.166 -0.57,-0.85 6.033,-4.044 1.415,-1.264 -13.827,-17.794 19.022,-14.799 14.749,19.026 -14.121,10.997 z m 22.47,50.785 -0.292,7.893 -2.785,-0.102 -1.459,1.069 -0.83,-1.152 -2.829,-0.103 0.288,-7.886 z m -25.59,-20.428 -9.747,7.593 -7.553,-9.756 9.738,-7.581 z m 27.833,41.78 -5.867,-2.359 2.388,-5.847 5.832,2.359 z m -14.306,-37.58 3.02,9.381 -8.49,2.742 -1.058,6.061 -6.233,-1.088 1.124,-6.219 5.075,0.899 -2.815,-8.753 z m -73.076,11.838 12.09,0.039 -0.051,19.278 -19.267,-0.044 0.013,-4.747 -1.014,-0.146 1.035,-7.192 0.005,-1.893 -22.477,-1.631 1.732,-24.037 24.007,1.767 -1.277,17.856 z m 37.43,-24.906 -7.886,17.593 -17.583,-7.879 1.94,-4.33 -0.865,-0.545 3.868,-6.148 0.778,-1.731 -19.871,-10.63 11.359,-21.255 21.213,11.381 -8.429,15.788 4.46,2.809 z m -0.617,61.216 -3.871,-4.996 4.064,-3.171 -8.386,-3.765 4.026,-8.991 8.992,4.034 -3.643,8.143 3.797,4.844 z m 13.155,-38.832 6.575,7.342 -6.643,5.958 1.5,5.969 -6.136,1.539 -1.502,-6.139 5.002,-1.242 -6.132,-6.851 z m -14.067,1.663 -5.817,10.903 -10.867,-5.84 5.812,-10.888 z m 34.63,15.585 -2.586,1.04 -0.899,1.572 -1.227,-0.717 -2.624,1.055 -2.944,-7.322 7.338,-2.957 z m 1.471,11.496 -0.195,-6.314 6.288,-0.216 0.227,6.3 z m -35.579,29.992 -5.567,-2.992 2.424,-4.548 -9.195,-0.03 0.023,-9.849 9.854,0.026 -0.017,8.921 5.44,2.881 z m -15.948,-33.585 -0.881,12.326 -12.304,-0.916 0.88,-12.31 z m 41.246,4.367 5.654,-2.755 2.771,5.663 -5.678,2.779 z m -5.214,-2.214 -0.18,1.8 -1.412,-0.156 -1.971,2.034 -5.667,-5.492 5.5,-5.685 5.671,5.497 z m -73.541,14.662 5.057,-1.431 11.06,-4.88 7.798,17.632 -17.621,7.796 -1.919,-4.342 -0.984,0.279 -1.98,-6.987 -0.767,-1.735 -21.196,7.651 -8.196,-22.663 22.653,-8.149 z m 77.246,2.207 -4.823,-4.078 4.047,-4.817 4.833,4.046 z m -9.527,-6.598 -0.957,2.618 0.566,1.718 -1.354,0.433 -0.972,2.657 -7.411,-2.711 2.713,-7.431 z m -42.157,31.092 -4.201,-11.603 11.604,-4.182 4.211,11.616 z m -20.021,14.832 4.041,-3.366 8.117,-8.955 14.294,12.937 -12.927,14.289 -3.518,-3.185 -0.786,0.655 -4.654,-5.582 -1.405,-1.27 -16.25,15.612 -16.705,-17.372 17.381,-16.657 z m 37.32,-17.328 9.014,-3.983 3.614,8.157 6.139,0.419 -0.432,6.311 -6.301,-0.467 0.364,-5.143 -8.412,3.716 z m -11.664,22.432 8.899,-8.541 8.573,8.902 -8.914,8.532 z m 27.088,-28.233 -0.546,-7.892 7.879,-0.534 0.189,2.782 1.217,1.339 -1.06,0.945 0.193,2.825 z m 20.454,-12.354 -1.733,6.081 -6.065,-1.765 1.738,-6.047 z m -51.244,71.173 2.322,-4.72 3.772,-11.482 18.322,6.005 -5.998,18.31 -4.509,-1.479 -0.452,0.919 -6.518,-3.205 -1.801,-0.591 -8.497,20.873 -22.328,-9.076 9.103,-22.286 z m 40.525,-31.216 -6.172,6.815 -7.306,-6.61 6.614,-7.306 6.618,5.983 5.781,-2.114 2.171,5.942 -5.948,2.136 z m -5.75,49.635 -1.223,-12.026 19.178,-1.965 1.968,19.166 -4.721,0.484 -0.04,1.021 -7.253,-0.274 -1.891,0.193 0.729,22.523 -24.087,0.791 -0.75,-24.062 17.888,-0.595 z m 18.553,-74.348 -6.258,0.855 -0.872,-6.23 6.24,-0.886 z m -27.814,50.155 4.655,-11.422 11.452,4.646 -4.673,11.42 z m 17.841,-45.026 1.656,0.729 -0.583,1.295 1.323,2.501 -6.974,3.692 -3.709,-6.987 6.981,-3.693 z m 15.542,29.474 -2.867,8.736 -9.363,-3.067 3.07,-9.363 8.482,2.773 4.42,-4.283 4.401,4.545 -4.564,4.37 z m 8.971,28.939 -12.335,0.408 -0.393,-12.327 12.351,-0.414 z m -15.191,-38.613 -6.231,-4.875 4.876,-6.213 2.194,1.719 1.81,-0.007 -0.007,1.42 2.227,1.746 z m 21.159,57.36 -6.013,-10.492 16.723,-9.598 9.594,16.71 -4.118,2.363 0.38,0.95 -6.744,2.7 -1.644,0.942 9.827,20.282 -21.683,10.518 -10.471,-21.676 16.1,-7.821 z m -13.294,-75.47 -5.368,3.326 -3.332,-5.336 5.343,-3.348 z m 10.297,39.5 -1.003,-9.804 8.873,-0.914 2.296,-5.711 5.868,2.361 -2.393,5.849 -4.775,-1.935 0.933,9.147 z m -6.5,-26.041 2.704,0.679 1.649,-0.742 0.572,1.3 2.747,0.689 -1.924,7.653 -7.674,-1.919 z m 18.856,32.963 11.115,-5.401 5.359,11.112 -11.103,5.392 z m -13.288,-43.128 -3.553,5.223 -5.213,-3.521 3.517,-5.229 z m 74.868,39.821 -11.815,-2.551 4.059,-18.848 18.835,4.05 -0.998,4.641 0.96,0.352 -2.507,6.82 -0.399,1.852 21.648,6.267 -6.692,23.154 -23.115,-6.722 4.961,-17.197 z m -41.788,16.579 11.371,-15.569 15.562,11.363 -2.8,3.833 0.734,0.712 -5.064,5.211 -1.116,1.528 17.224,14.531 -15.529,18.431 -18.383,-15.545 11.527,-13.692 -3.77,-3.668 z m -7.609,-24.503 -4.904,-8.547 7.734,-4.445 -0.226,-6.153 6.324,-0.228 0.193,6.316 -5.152,0.175 4.574,7.976 z m -16.699,-26.479 -6.193,-1.096 1.085,-6.209 6.231,1.088 z m 48.176,26.296 -7.95,9.44 -9.423,-7.957 7.957,-9.457 z m -48.005,-20.962 2.745,-0.48 1.207,-1.349 1.05,0.955 2.787,-0.486 1.357,7.773 -7.791,1.368 z m 34.494,-5.794 -2.706,-5.526 5.681,-2.782 2.745,5.692 -4.634,2.257 7.423,5.426 -5.808,7.957 -7.957,-5.815 z m -30.963,-8.971 6.135,-1.539 1.503,6.134 -6.105,1.519 z m 62.344,9.022 -3.423,11.859 -11.846,-3.437 3.423,-11.874 z m -47.978,6.934 -4.404,-6.557 2.314,-1.555 0.553,-1.723 1.348,0.444 2.349,-1.577 4.402,6.55 z m 85.57,-33.747 -9.46,-15.195 -4.648,2.451 -9.807,7.076 -11.293,-15.628 15.617,-11.287 2.778,3.845 0.906,-0.476 3.39,6.425 1.11,1.537 19.141,-11.893 12.729,20.464 z m -30.433,7.375 -12.219,1.678 -1.703,-12.239 12.225,-1.663 z m -32.256,9.216 1.873,-8.724 -4.722,-3.948 4.061,-4.852 4.821,4.083 -3.315,3.946 8.987,1.939 -2.07,9.631 z m 48.805,-5.37 1.021,-0.068 0.485,7.25 0.387,1.854 22.324,-3.079 3.305,23.873 -23.851,3.261 -2.463,-17.728 -5.249,0.348 -11.83,2.474 -3.959,-18.868 18.856,-3.962 z m -73.891,-2.857 3.868,4.993 -4.957,3.87 -3.889,-4.963 z m 9.428,6.074 -0.197,-1.799 1.414,-0.14 1.502,-2.399 6.685,4.194 -4.197,6.705 -6.688,-4.2 z"
           style="fill:#231f20;fill-opacity:1;fill-rule:nonzero;stroke:none"
           id="path931"
           inkscape:connector-curvature="0" /></g></g></g></svg>